<?xml version="1.0" encoding="UTF-8"?>
<!DOCTYPE svg PUBLIC "-//W3C//DTD SVG 1.1//EN" "http://www.w3.org/Graphics/SVG/1.1/DTD/svg11.dtd">
<!-- Creator: CorelDRAW (Versão OEM) -->
<svg xmlns="http://www.w3.org/2000/svg" xml:space="preserve" width="100%" height="100%" version="1.1" style="shape-rendering:geometricPrecision; text-rendering:geometricPrecision; image-rendering:optimizeQuality; fill-rule:evenodd; clip-rule:evenodd"
viewBox="0 0 16.93332 16.93332"
 xmlns:xlink="http://www.w3.org/1999/xlink"
 xmlns:xodm="http://www.corel.com/coreldraw/odm/2003">
 <defs>
  <style type="text/css">
   <![CDATA[
    .fil2 {fill:black}
    .fil0 {fill:#F4F4F4}
    .fil1 {fill:black;fill-rule:nonzero}
   ]]>
  </style>
 </defs>
 <g id="Camada_x0020_1">
  <metadata id="CorelCorpID_0Corel-Layer"/>
  <rect class="fil0" x="-0.00001" width="16.93333" height="16.93333"/>
  <g id="_1593961918224">
   <path class="fil1" d="M12.43233 9.9807c-0.00033,-0.0102 -0.00063,-0.01983 -0.00042,-0.02862 0.00051,-0.0192 -0.00042,-0.03732 -0.00276,-0.05403l-0.00042 -0.00279 -0.00066 -0.00417 -0.00009 0.00006c-0.00381,-0.02262 -0.01029,-0.04212 -0.01974,-0.05919 -0.0054,-0.00975 -0.0123,-0.01866 -0.02046,-0.02679l0.00021 -0.00006 -0.00348 -0.00312 -0.00192 -0.0018 -0.00012 0.00006c-0.02703,-0.0237 -0.06615,-0.03759 -0.11952,-0.04221 -0.01335,-0.00129 -0.02757,-0.00177 -0.04218,-0.00189 -0.00012,0 -0.00033,0 -0.00054,0 -0.05334,0 -0.08952,0.02253 -0.0966,0.06039 -0.00276,0.01497 0.00105,0.02976 0.01026,0.03954 0.0084,0.00888 0.02037,0.0129 0.03363,0.0114 0.01494,-0.00168 0.02895,-0.00609 0.04263,-0.01041 0.01113,-0.00342 0.0228,-0.00711 0.03447,-0.00897 0.00828,-0.00141 0.0159,-0.0018 0.02313,-0.00141 0.00984,0.00075 0.01887,0.00288 0.02544,0.00612 0.00615,0.00294 0.00987,0.00672 0.01113,0.01101 0.00138,0.00462 0,0.01014 -0.00393,0.01656 -0.0123,0.01971 -0.04326,0.02061 -0.06594,0.02139 -0.00255,0 -0.00501,0.00009 -0.00723,0.00021 -0.02832,0.00114 -0.06438,0.00555 -0.09162,0.02925 -0.00615,0.00522 -0.01134,0.01149 -0.01569,0.01866l-0.00012 0 -0.00126 0.00219 -0.00234 0.00399 0.00021 0.00009c-0.00711,0.01407 -0.01071,0.03081 -0.01071,0.05013 0,0.01581 0.00318,0.03039 0.00912,0.04371l-0.00021 0 0.00201 0.00399 0.00117 0.0024 0.00021 0c0.01293,0.024 0.03606,0.04212 0.06702,0.05244 0.02556,0.00843 0.05196,0.01149 0.0786,0.01149 0.0264,0 0.0528,-0.00306 0.07857,-0.00672 0.02067,-0.00294 0.04401,-0.00627 0.0612,-0.02052 0.00783,-0.00654 0.01389,-0.0147 0.01854,-0.02475l0.00024 0 0.00084 -0.00189 0.00222 -0.00513 -0.00042 0c0.00414,-0.01089 0.00657,-0.02394 0.00741,-0.03933l0.00021 0 0.00021 -0.0051 0 -0.00234c0.00033,-0.0114 0,-0.02286 -0.0003,-0.03384zm-0.20436 0.00135c0.00858,-0.00504 0.02025,-0.00825 0.03447,-0.00957l0.00879 -0.00066 0.0018 0c0.01719,0.00066 0.03501,0.00144 0.04296,0.02007 0.00033,0.00159 0.00054,0.00327 0.00054,0.00495 0,0.01092 -0.00585,0.02208 -0.0156,0.02985 -0.00987,0.00798 -0.02217,0.01116 -0.03384,0.0087l-0.00042 -0.00006 -0.0003 0c-0.00234,0 -0.00456,0 -0.00669,-0.00012 -0.01473,-0.00075 -0.02568,-0.00363 -0.03234,-0.00879 -0.00753,-0.00591 -0.01125,-0.01353 -0.01125,-0.02358 0,-0.00936 0.00393,-0.01614 0.01188,-0.02079z"/>
   <path class="fil1" d="M6.34066 9.41259c-0.07284,0 -0.1377,-0.01527 -0.19458,-0.04554 -0.05688,-0.03021 -0.10146,-0.07203 -0.13371,-0.12501 -0.03225,-0.0534 -0.04857,-0.1146 -0.04857,-0.18402 0,-0.10791 0.04059,-0.19377 0.12105,-0.25797 0.08079,-0.0642 0.18843,-0.0963 0.32286,-0.0963 0.04674,0 0.09132,0.003 0.13371,0.009 0.04239,0.00558 0.0855,0.01563 0.12972,0.02943l0 -0.02427c0,-0.06606 -0.01992,-0.11418 -0.05907,-0.14406 -0.03912,-0.02985 -0.10221,-0.04518 -0.1884,-0.04518 -0.06234,0 -0.1254,0.00861 -0.18918,0.02538 -0.06342,0.01683 -0.12141,0.03993 -0.17394,0.06981l-0.02862 -0.01305 0 -0.31917c0.07428,-0.02985 0.15873,-0.05259 0.25329,-0.06795 0.09423,-0.0153 0.18951,-0.02274 0.28482,-0.02274 0.21162,0 0.36636,0.03624 0.46383,0.10938 0.09783,0.07278 0.14676,0.18963 0.14676,0.35088l0 0.40353 0.13803 0 0 0.32808 -0.57975 0 -0.05181 -0.17169c-0.03336,0.0597 -0.08082,0.1068 -0.14208,0.1404 -0.06123,0.03396 -0.12933,0.05106 -0.20436,0.05106zm0.22212 -0.27993c0.01887,0 0.03915,-0.00369 0.05979,-0.01044 0.02103,-0.00708 0.03696,-0.01644 0.04857,-0.02802l0 -0.18252c-0.01776,-0.00822 -0.03588,-0.01347 -0.05364,-0.01641 -0.01809,-0.00303 -0.03513,-0.0045 -0.0507,-0.0045 -0.03588,0 -0.06633,0.01122 -0.0906,0.03285 -0.0243,0.02205 -0.0366,0.05112 -0.0366,0.08775 0,0.03696 0.01122,0.06642 0.03405,0.08841 0.02247,0.02169 0.05217,0.03288 0.08913,0.03288z"/>
   <path class="fil2" d="M13.47801 9.26607l0.46185 -0.00591c0.00093,0.18978 -0.28914,0.15531 -0.4194,0.11676l-0.04245 -0.11085zm-0.12702 -0.91617c0.24093,-0.08061 0.13812,0.11688 0.34089,0.11922 0.17802,0.00213 0.18972,-0.24426 0.32316,-0.10218 0.14919,0.13314 -0.12438,0.255 -0.20667,0.32073 -0.00681,0.10236 0.03018,0.26445 -0.09732,0.28473 -0.16233,0.02577 -0.12396,-0.17829 -0.12783,-0.28473 -0.12219,-0.1014 -0.2937,-0.10914 -0.23223,-0.33777zm1.44501 -0.34431c0.14022,-0.71565 -0.45321,-1.38374 -1.19436,-1.31157 -0.72798,0.07092 -1.18125,0.84018 -0.92229,1.5102 0.15288,0.39555 0.48474,0.52548 0.56793,0.70935 0.14232,0.31434 -0.19758,0.75117 0.5832,0.68472 0.53085,-0.04518 0.13578,-0.51564 0.45561,-0.81678 0.27804,-0.26181 0.43131,-0.37494 0.50991,-0.77592z"/>
   <path class="fil1" d="M11.44651 9.46674c-0.07752,0 -0.14655,-0.01599 -0.20709,-0.04752 -0.0606,-0.03156 -0.108,-0.07521 -0.14235,-0.13053 -0.03432,-0.05571 -0.05166,-0.11961 -0.05166,-0.19203 0,-0.11253 0.04317,-0.20211 0.12882,-0.26916 0.08601,-0.06699 0.20055,-0.10044 0.34365,-0.10044 0.04974,0 0.0972,0.00309 0.14228,0.00933 0.04515,0.00582 0.09105,0.01635 0.13812,0.03081l0 -0.02538c0,-0.06894 -0.02124,-0.11916 -0.06288,-0.1503 -0.04167,-0.0312 -0.10874,-0.04713 -0.20054,-0.04713 -0.06633,0 -0.13347,0.00894 -0.20136,0.02646 -0.06747,0.01752 -0.12921,0.0417 -0.18513,0.07284l-0.03048 -0.01365 0 -0.333c0.07908,-0.03117 0.16896,-0.05493 0.26961,-0.07086 0.10029,-0.01602 0.20175,-0.02379 0.30314,-0.02379 0.22527,0 0.38994,0.03777 0.49371,0.11412 0.1041,0.0759 0.15621,0.19782 0.15621,0.36612l0 0.42111 0.14694 0 0 0.34233 -0.6171 0 -0.05517 -0.17919c-0.03549,0.06237 -0.08601,0.11142 -0.15117,0.14649 -0.06518,0.03543 -0.13769,0.05337 -0.21755,0.05337zm0.23642 -0.29217c0.02007,0 0.04167,-0.00387 0.06363,-0.01092 0.02238,-0.00741 0.03936,-0.0171 0.05172,-0.02922l0 -0.19041c-0.01893,-0.00858 -0.03822,-0.01407 -0.05709,-0.01716 -0.01929,-0.00309 -0.03741,-0.00471 -0.054,-0.00471 -0.03822,0 -0.07058,0.01173 -0.09644,0.03432 -0.02583,0.02298 -0.03891,0.05331 -0.03891,0.09156 0,0.03852 0.01194,0.0693 0.03621,0.09225 0.02394,0.02262 0.05555,0.03429 0.09488,0.03429z"/>
   <path class="fil1" d="M5.4406 8.12628c-0.09279,0 -0.16706,-0.02274 -0.2225,-0.06867 -0.05544,-0.0459 -0.08334,-0.10674 -0.08334,-0.18252 0,-0.07617 0.02754,-0.13587 0.08262,-0.17994 0.05544,-0.04404 0.13007,-0.06642 0.22427,-0.06642 0.09603,0 0.17106,0.0216 0.22431,0.06459 0.05364,0.04287 0.0801,0.10374 0.0801,0.18177 0,0.07725 -0.02718,0.13848 -0.08226,0.18363 -0.05472,0.04518 -0.12936,0.06756 -0.2232,0.06756z"/>
   <polygon class="fil1" points="5.021,9.39282 5.021,9.06474 5.18585,9.06474 5.18585,8.56269 5.021,8.56269 5.021,8.2644 5.69533,8.19984 5.69533,9.06474 5.85982,9.06474 5.85982,9.39282 "/>
   <path class="fil1" d="M3.87266 9.39282l0 -0.32808 0.15402 0 0 -0.50205 -0.15402 0 0 -0.29829 0.65298 -0.06456 0 0.22395c0.04167,-0.0795 0.0993,-0.13737 0.17283,-0.17391 0.07356,-0.03624 0.14385,-0.05454 0.21126,-0.05454l0 0.47037c-0.06378,-0.0228 -0.12213,-0.03402 -0.17502,-0.03402 -0.03552,0 -0.07284,0.00636 -0.1116,0.01905 -0.03876,0.01269 -0.06777,0.03027 -0.08697,0.0519l0 0.3621 0.24423 0 0 0.32808 -0.90771 0z"/>
   <path class="fil1" d="M3.05516 9.42456c-0.19203,0 -0.35799,-0.03804 -0.4986,-0.11382 -0.14025,-0.07581 -0.24894,-0.18408 -0.32541,-0.32475 -0.07644,-0.14079 -0.11448,-0.30801 -0.11448,-0.50208 0,-0.13926 0.01992,-0.26244 0.05979,-0.36954 0.04023,-0.10716 0.09528,-0.19749 0.1656,-0.27102 0.07065,-0.07389 0.15147,-0.12954 0.24279,-0.16689 0.09132,-0.03768 0.18804,-0.05631 0.29094,-0.05631 0.10728,0 0.2004,0.01749 0.27903,0.05265 0.07863,0.03468 0.14349,0.08583 0.19422,0.15297l0.05436 -0.17388 0.29169 0 0 0.72378 -0.38736 0c-0.00579,-0.14001 -0.03225,-0.23628 -0.0801,-0.28968 -0.04782,-0.0534 -0.11013,-0.07989 -0.18732,-0.07989 -0.05688,0 -0.1098,0.01644 -0.1587,0.04929 -0.04929,0.03285 -0.08877,0.08322 -0.11886,0.15081 -0.03009,0.06792 -0.0453,0.15453 -0.0453,0.26055 0,0.15603 0.03951,0.27507 0.1185,0.35796 0.07899,0.08286 0.18987,0.1239 0.33264,0.1239 0.08445,0 0.16668,-0.01452 0.2475,-0.04368 0.08043,-0.02907 0.15579,-0.07389 0.22503,-0.13434l0.02862 0.01305 0 0.46137c-0.08226,0.06195 -0.17901,0.10752 -0.29025,0.13629 -0.1116,0.02868 -0.2196,0.04326 -0.32433,0.04326z"/>
   <polygon class="fil1" points="9.89218,9.44607 9.54274,8.56503 9.43549,8.56503 9.43549,8.22267 10.25239,8.22267 10.25239,8.56503 10.11703,8.56503 10.31335,9.12435 10.52935,8.56503 10.39357,8.56503 10.39357,8.22267 10.96669,8.22267 10.96669,8.56503 10.85911,8.56503 10.51006,9.44607 "/>
   <path class="fil1" d="M8.95993 8.12451c-0.09873,0 -0.17781,-0.02382 -0.23679,-0.07173 -0.05904,-0.04791 -0.08871,-0.11139 -0.08871,-0.19044 0,-0.07944 0.02928,-0.14181 0.0879,-0.18774 0.05904,-0.04599 0.13848,-0.06933 0.23877,-0.06933 0.10218,0 0.18204,0.02256 0.23874,0.06738 0.05709,0.04479 0.08526,0.1083 0.08526,0.18969 0,0.08061 -0.02895,0.14448 -0.08757,0.19164 -0.05823,0.04716 -0.1377,0.07053 -0.2376,0.07053z"/>
   <polygon class="fil1" points="8.51332,9.44607 8.51332,9.10371 8.68879,9.10371 8.68879,8.57979 8.51332,8.57979 8.51332,8.2686 9.23107,8.20119 9.23107,9.10371 9.40618,9.10371 9.40618,9.44607 "/>
   <path class="fil1" d="M8.12956 9.46671c-0.17859,0 -0.31668,-0.04131 -0.41385,-0.12387 -0.09681,-0.08256 -0.14541,-0.20211 -0.14541,-0.35913l0 -0.41868 -0.18669 0 0 -0.31164 0.18669 -0.01791 0 -0.2742 0.54228 -0.11958 0 0.38097 0.27345 0 0 0.34236 -0.27345 0 0 0.40737c0,0.04557 0.01119,0.08145 0.03315,0.10674 0.02238,0.02571 0.05595,0.03819 0.10107,0.03819 0.02661,0 0.04899,-0.00234 0.06747,-0.00741 0.01854,-0.00468 0.03591,-0.01014 0.0525,-0.01518l0.03045 0.01359 0 0.32646c-0.04284,0.00969 -0.08601,0.01749 -0.12921,0.02334 -0.04359,0.00549 -0.08949,0.00858 -0.13845,0.00858z"/>
   <path class="fil1" d="M10.54381 9.8967c-0.00108,-0.02643 -0.00255,-0.05913 -0.01476,-0.08691l0 -0.00012 -0.00084 -0.00192 -0.00243 -0.00516 -0.00012 0.00021c-0.0051,-0.00969 -0.01113,-0.01809 -0.01866,-0.02523 -0.00996,-0.00942 -0.02238,-0.01719 -0.03681,-0.02304l0.00021 -0.00021 -0.00519 -0.00192 -0.00213 -0.00072 0 0.00012c-0.02448,-0.00858 -0.05451,-0.01227 -0.08928,-0.01083 -0.07605,0.00327 -0.13659,0.04491 -0.15804,0.10845 -0.02067,0.06162 -0.00954,0.13269 0.02781,0.17718 0.02142,0.02547 0.05154,0.04125 0.08706,0.04572 0.01155,0.00141 0.02322,0.00102 0.03456,0.0006 0.00702,-0.00033 0.01422,-0.00054 0.02121,-0.00033 0.00702,0.00015 0.01305,0.00075 0.01857,0.00192 0.00573,0.00102 0.0105,0.003 0.01431,0.00585 0.00573,0.00438 0.00891,0.01056 0.00903,0.01761 0.00009,0.00975 -0.00573,0.01953 -0.01581,0.02685 -0.02586,0.01851 -0.05949,0.01674 -0.07731,0.01416l-0.00054 -0.00015c-0.00783,-0.00126 -0.0159,-0.00366 -0.02385,-0.00597 -0.01623,-0.00489 -0.03309,-0.00972 -0.05028,-0.00549l-0.00009 -0.00024 -0.00372 0.00126c-0.00042,0.00006 -0.00084,0.00021 -0.00126,0.00027 -0.00012,0.00015 -0.00012,0.00015 -0.00024,0.00015l-0.00084 0.00033 0 0.00006c-0.01899,0.00723 -0.02427,0.02034 -0.02523,0.03009 -0.00222,0.02253 0.01536,0.04719 0.0336,0.05802 0.02589,0.01548 0.05835,0.02283 0.09165,0.02283 0.04857,0 0.09885,-0.01584 0.13341,-0.04569 0.00234,-0.00201 0.00477,-0.00444 0.00744,-0.00705l0 0.00012 0.00243 -0.00252c0,-0.00012 0,-0.00012 0.00009,-0.00012l0.00225 -0.0024 -0.00012 -0.00015c0.01581,-0.01746 0.02673,-0.03852 0.03342,-0.06435l0.00009 0.00012 0.00075 -0.00315 0.00084 -0.00363c0.00393,-0.01785 0.00615,-0.03765 0.00669,-0.06219 0.00033,-0.01317 0.00075,-0.02622 0.00117,-0.03945 0.00126,-0.03696 0.00255,-0.07524 0.00096,-0.11298zm-0.21255 0.07197c-0.00933,-0.01149 -0.01464,-0.02679 -0.01557,-0.04431 -0.00204,-0.04179 0.02226,-0.08922 0.06531,-0.0927 0.02121,-0.00177 0.03405,0.01083 0.04116,0.0216 0.01887,0.02856 0.02025,0.07941 0.00297,0.11082 -0.00678,0.01251 -0.01953,0.02724 -0.04137,0.02724 -0.00243,0 -0.00465,-0.00006 -0.00699,-0.00027 -0.00669,-0.00045 -0.01305,-0.00171 -0.01878,-0.00369 -0.01083,-0.00369 -0.01971,-0.00999 -0.02673,-0.01869z"/>
   <path class="fil1" d="M10.16191 10.02315l-0.00054 -0.00579c-0.00159,-0.0219 -0.00117,-0.04425 -0.00084,-0.06594l0.00009 -0.00705 0 0c0.00021,-0.01731 0.00042,-0.03498 -0.00063,-0.05262 -0.00171,-0.03057 -0.00531,-0.06552 -0.02565,-0.09243 -0.03501,-0.04644 -0.09864,-0.05181 -0.1434,-0.05151 -0.03342,0.00018 -0.07656,0.00255 -0.11253,0.02028 -0.00678,0.0033 -0.01314,0.00729 -0.01887,0.01182l-0.00012 0 -0.00093 0.00075 -0.00702 0.00603 0.00021 0c-0.00594,0.00591 -0.01071,0.0123 -0.0141,0.01911 -0.00636,0.01257 -0.00807,0.02601 -0.00837,0.03897l-0.00012 -0.00021 0.00012 0.00843 0 0.00132 0 0c0.00009,0.00327 0.00021,0.00654 0.0003,0.00966 0.00012,0.00486 0.00024,0.00963 0.00024,0.01446 0,0.01251 0.00009,0.02505 0.00021,0.03762 0.00021,0.02487 0.00042,0.05058 -0.00021,0.07581 -0.00012,0.006 -0.00087,0.01281 -0.0015,0.02013 -0.00276,0.02706 -0.00603,0.06075 0.01494,0.07854 0.01932,0.01632 0.06852,0.02025 0.08718,0.00207 0.00882,-0.00846 0.0138,-0.0204 0.01539,-0.03615l0.00012 0 0.00009 -0.00153 0.00063 -0.00759 -0.0003 0.00021c0.0003,-0.0093 -0.00033,-0.01887 -0.00108,-0.02778l0 0 -0.0003 -0.00345c0,-0.00033 0,-0.0006 -0.00012,-0.00093l-0.00021 -0.00264c-0.00042,-0.00555 -0.00096,-0.01146 -0.00105,-0.01677 -0.00042,-0.02337 -0.00021,-0.04716 -0.00012,-0.07023l0.00012 -0.01062c0.00021,-0.03708 0.00327,-0.07083 0.03732,-0.07767l0.00063 -0.00012c0.0015,-0.00027 0.00297,-0.00048 0.00447,-0.00069 0.01464,-0.00159 0.02811,0.00156 0.03882,0.00921l0.00009 0c0.00255,0.00189 0.00468,0.00357 0.00648,0.00534 0.01008,0.01005 0.01569,0.02442 0.01569,0.04035l0 0.15237c-0.00009,0.01539 -0.00021,0.03465 0.01293,0.0465 0.01146,0.01029 0.02736,0.01434 0.04296,0.01434 0.00912,0 0.01803,-0.00141 0.02577,-0.00372 0.0384,-0.01176 0.03552,-0.04845 0.03321,-0.07788z"/>
   <path class="fil1" d="M9.76759 9.93777l-0.00033 -0.00576c-0.00054,-0.00876 -0.00096,-0.01716 -0.00096,-0.0234 0,-0.01137 0.00159,-0.02313 0.00318,-0.03549 0.00351,-0.02715 0.00711,-0.05517 -0.00573,-0.08001 -0.00804,-0.01554 -0.02301,-0.0255 -0.04104,-0.02727 -0.01971,-0.00189 -0.04008,0.00609 -0.05292,0.02058l-0.00021 0 -0.00147 0.00186 0 0 -0.00033 0.00021 0 0.00012c0,0 0,0 0,0l-0.00234 0.00282 0.00012 0.00012c-0.00021,0.0003 -0.00054,0.0006 -0.00075,0.0009 -0.01422,0.02154 -0.01581,0.04857 -0.01518,0.07056l-0.00009 0 0.00009 0.00339 0.00012 0.00354 0.00012 0c0.0003,0.00693 0.00072,0.01383 0.00114,0.02046 0.00033,0.00387 0.00054,0.00765 0.00075,0.01131 0.00171,0.02808 0.0015,0.05673 0.00129,0.0843 -0.00021,0.018 -0.00033,0.03666 0.00009,0.05502 0.00054,0.02757 0.00498,0.05727 0.03342,0.0687 0.01008,0.00399 0.01941,0.00606 0.02778,0.00606 0.00159,0 0.00306,-0.00021 0.00465,-0.00039l0.00012 0.00018 0.00255 -0.00042 0.00465 -0.00072 -0.00009 -0.00018c0.01113,-0.00306 0.02025,-0.0105 0.02703,-0.02229 0.00138,-0.00237 0.00276,-0.00525 0.00405,-0.00816l0.00009 0 0.00138 -0.00357c0,0 0,0 0,0l0.00108 -0.00294 -0.00012 0c0.00636,-0.01791 0.00966,-0.04191 0.01008,-0.07329l0 0 0 -0.00183 0.00009 -0.00642 -0.00009 0c0,-0.02085 -0.00129,-0.04131 -0.00222,-0.05799z"/>
   <path class="fil1" d="M9.65443 9.70578l-0.00024 0.00012 0.00213 0.0033c0,0 0,0 0,0l0.00171 0.00255 0.00009 0c0.00192,0.00252 0.00393,0.00504 0.00615,0.00723 0.00309,0.00312 0.00627,0.00585 0.00945,0.00798 0.00879,0.00597 0.01866,0.00903 0.02895,0.00903 0.00447,0 0.00912,-0.00066 0.0138,-0.00177 0.01854,-0.00462 0.03573,-0.01851 0.04539,-0.03618l0.00009 0 0.00075 -0.0015 0.00339 -0.0066 -0.00054 0.00012c0.00426,-0.01062 0.00543,-0.0216 0.0033,-0.03201 -0.00042,-0.00198 -0.00084,-0.00372 -0.00147,-0.00564l0.00063 0.00018 -0.00309 -0.00711c0,0 0,0 -0.00009,0l-0.00054 -0.00132 -0.00012 0c-0.00666,-0.01374 -0.01875,-0.02286 -0.03423,-0.02604 -0.02058,-0.00399 -0.04413,0.00288 -0.06099,0.01734l-0.00012 -0.00012 -0.00231 0.00216 -0.00276 0.00267 0.00009 0.00006c-0.00966,0.01011 -0.01527,0.02229 -0.01632,0.03543 -0.00075,0.0105 0.00168,0.02088 0.0069,0.03012z"/>
   <path class="fil1" d="M9.59365 10.01886c-0.00732,-0.00621 -0.01719,-0.0084 -0.02844,-0.00666 -0.00306,0.00054 -0.00615,0.00087 -0.00912,0.00105 -0.01197,0.00093 -0.02874,0.00015 -0.04041,-0.00951 -0.00849,-0.00684 -0.01293,-0.01719 -0.01347,-0.03075 -0.00021,-0.00618 -0.00096,-0.01368 -0.00168,-0.02166 -0.00234,-0.02298 -0.0051,-0.05148 0.00189,-0.07203l0 0c0.00489,-0.01428 0.0138,-0.02265 0.02727,-0.02571 0.00669,-0.00159 0.01452,-0.0018 0.02292,-0.00207l0.00507 -0.00027 0 0c0.0192,-0.00069 0.04359,-0.00276 0.04815,-0.03069 0.00309,-0.01947 -0.00753,-0.04224 -0.02355,-0.05073 -0.01071,-0.00567 -0.02331,-0.00699 -0.03561,-0.0084 -0.02283,-0.00252 -0.04254,-0.00471 -0.04584,-0.03267l-0.00021 -0.0018c-0.00138,-0.01206 -0.00285,-0.02346 -0.00753,-0.03357l0 -0.00018 -0.00042 -0.00087 -0.00594 -0.01191 -0.00009 0.00282c-0.00339,-0.00402 -0.00744,-0.00765 -0.0123,-0.01056 -0.00225,-0.0015 -0.00468,-0.00252 -0.00711,-0.00363l0.00189 -0.0006 -0.01209 -0.00276c0,0 0,0 0,0l-0.00093 -0.00021 -0.00012 0c-0.01431,-0.00291 -0.02937,-0.00039 -0.04158,0.0072 -0.02607,0.01599 -0.02586,0.04941 -0.02514,0.07482l0 0 0.00021 0.00774c0.00033,0.01236 0.00045,0.02487 0.00045,0.0372 0.00009,0.01452 0.00009,0.02883 0,0.0432 0,0.00936 0,0.01854 0,0.0279l0 0.03735c-0.00012,0.02292 -0.00012,0.04575 0,0.06864 0,0.02451 0.00009,0.0498 0.00921,0.07287l0 0.00009 0.00042 0.00105c0,0 0,0.00012 0,0.00012l0.00393 0.0093 0.00012 -0.00057c0.00114,0.00207 0.00222,0.00396 0.00339,0.0057 0.00264,0.00402 0.00561,0.00777 0.009,0.01137l-0.00096 0 0.00786 0.00678c0.02748,0.02373 0.06597,0.02844 0.09258,0.02844 0.00468,0 0.00891,-0.00015 0.01272,-0.00036 0.021,-0.00111 0.05082,-0.00522 0.06756,-0.02628 0.00585,-0.00747 0.00924,-0.01689 0.00987,-0.0267l0.00033 0 0 -0.00294 0 -0.00411 -0.00021 0.00012c-0.00087,-0.0105 -0.0051,-0.01974 -0.01209,-0.02556z"/>
   <path class="fil1" d="M9.33859 10.06785c0.00816,-0.01359 0.00804,-0.02847 -0.00021,-0.04335 -0.00849,-0.01503 -0.02556,-0.01776 -0.0402,-0.01536l0.0003 -0.0006 -0.00753 0.00231 -0.00147 0.00039 0 0.00021c-0.00222,0.00075 -0.00447,0.00147 -0.00636,0.00234 -0.02907,0.01356 -0.07551,0.02307 -0.10893,0.01182 -0.009,-0.003 -0.01665,-0.00744 -0.02247,-0.01296 -0.0033,-0.00303 -0.00573,-0.00663 -0.00723,-0.01044 -0.00201,-0.0051 -0.0021,-0.01014 -0.00021,-0.01443 0.00201,-0.00459 0.00627,-0.00822 0.0123,-0.01047 0.01581,-0.00579 0.0333,-0.00744 0.05016,-0.00912 0.00681,-0.00066 0.01347,-0.00126 0.02007,-0.00213 0.02841,-0.00381 0.10371,-0.01395 0.11028,-0.0702 0.00786,-0.06618 -0.02247,-0.1119 -0.08769,-0.13203 -0.03195,-0.00984 -0.06609,-0.01131 -0.09897,-0.00417l0 -0.00009 -0.00159 0.00033 -0.00753 0.00174 0.00021 0.00012c-0.01875,0.00495 -0.03594,0.01257 -0.05142,0.02265l0 -0.00024 -0.00648 0.00462 -0.00117 0.00096c-0.02259,0.01665 -0.03978,0.03795 -0.05079,0.06324 -0.00669,0.01518 -0.01104,0.03249 -0.01326,0.05145l-0.00012 -0.00009 -0.00051 0.00492 -0.00021 0.0024 0.00009 0c-0.00117,0.01356 -0.00105,0.0273 0.00021,0.04086l0.00021 0.00246 0.00054 0.00492 0.00012 -0.00012c0.00093,0.00828 0.00222,0.01614 0.00381,0.02331 0.00975,0.04266 0.03468,0.07767 0.07221,0.10104 0.03342,0.02076 0.07551,0.03165 0.1191,0.03165 0.01953,0 0.03936,-0.00222 0.05877,-0.00657 0.01866,-0.00432 0.04539,-0.01575 0.06066,-0.03396l0.00021 0 0.00096 -0.0012c0,0 0,-0.00009 0,-0.00009l0.00465 -0.00612 -0.00051 0zm-0.10278 -0.21957c0.00468,0.00252 0.00849,0.00531 0.01167,0.00858 0.00351,0.00378 0.00519,0.00774 0.00498,0.01197 -0.00033,0.00531 -0.00381,0.01122 -0.00987,0.01644 -0.00348,0.003 -0.00753,0.00555 -0.01167,0.00747 -0.02025,0.00888 -0.05853,0.01839 -0.081,0.00816 -0.00861,-0.00399 -0.01413,-0.01086 -0.0153,-0.01878 -0.00114,-0.0084 0.00246,-0.01689 0.01008,-0.02328 0.01359,-0.01161 0.0333,-0.01845 0.054,-0.01866 0.01368,-0.00009 0.02703,0.0027 0.03711,0.0081z"/>
   <path class="fil1" d="M8.98753 10.05207c0.00063,-0.01398 -0.0054,-0.02697 -0.01698,-0.03714l0.00033 0 -0.00276 -0.00207c-0.00009,-0.00012 -0.00009,-0.00012 -0.00021,-0.00021l-0.00465 -0.00357 0 0c-0.00489,-0.00378 -0.00978,-0.00744 -0.01476,-0.01122 -0.01284,-0.00966 -0.02619,-0.01974 -0.03849,-0.03045 -0.00159,-0.00135 -0.00351,-0.00279 -0.00552,-0.00447 -0.00552,-0.00462 -0.01242,-0.01029 -0.01803,-0.01632l0 0c-0.00753,-0.0081 -0.01104,-0.01491 -0.0108,-0.021 0,-0.00159 0.0003,-0.00312 0.00093,-0.00465 0.00477,-0.01212 0.01761,-0.02001 0.03003,-0.02751 0.00222,-0.00138 0.00444,-0.00273 0.00657,-0.00411l0.00009 0.00012 0.00276 -0.00192 0.00297 -0.00201 0 0c0.00213,-0.00153 0.00414,-0.00294 0.00573,-0.00438 0.00288,-0.00237 0.00585,-0.00483 0.00891,-0.00732 0.02004,-0.01626 0.04497,-0.03657 0.04539,-0.0645 0.00021,-0.01266 -0.00477,-0.02412 -0.01464,-0.03408l0 -0.00006 -0.00168 -0.00147c0,0 0,-0.00012 0,-0.00012l-0.00381 -0.00354 -0.00012 0.00027c-0.00582,-0.00471 -0.01293,-0.00903 -0.02121,-0.0129 -0.01791,-0.00837 -0.03234,-0.00081 -0.04518,0.00852 -0.00222,0.00159 -0.00456,0.00345 -0.00699,0.00543l-0.00012 0 -0.00372 0.00315c0,0 0,0 0,0l-0.0018 0.00171 0 0c-0.01356,0.01215 -0.02544,0.02631 -0.0369,0.04002 -0.00552,0.0066 -0.01125,0.01356 -0.01707,0.02004l-0.00285 0.00312c-0.00936,0.01083 -0.02877,0.03303 -0.04107,0.02526 -0.01473,-0.0093 -0.00837,-0.0432 -0.00369,-0.06801 0.00201,-0.01047 0.00369,-0.0195 0.00369,-0.0258 0,-0.00564 0.00045,-0.01236 0.00087,-0.02022 0.00231,-0.0408 0.00573,-0.10233 -0.03765,-0.11295 -0.00774,-0.00183 -0.01602,-0.00219 -0.02472,-0.00099l-0.00012 0 -0.00084 0.00006 -0.01506 0.00213 0.00267 0.00078c-0.01434,0.00489 -0.02643,0.01389 -0.03405,0.02613 -0.00213,0.00324 -0.00372,0.00687 -0.0051,0.0105l-0.00084 -0.00306 -0.00243 0.01596 -0.00012 0.00072 0 0.00012c-0.00171,0.01269 -0.00054,0.02565 0.00063,0.03828 0.00042,0.00354 0.00075,0.00711 0.00096,0.01059 0.0015,0.01875 0.0015,0.03804 0.00138,0.05667l0 0.00444c0,0.02997 -0.00084,0.06039 -0.00159,0.08976 -0.00063,0.02619 -0.00126,0.0531 -0.0015,0.07974 0,0.00537 -0.0003,0.01164 -0.00063,0.01836 -0.00021,0.0066 -0.00051,0.01359 -0.00063,0.02082l0 0 -0.00012 0.00339 0 0.0036 0 0c0,0.01755 0.00138,0.03162 0.00414,0.04338l0 0 0.00096 0.00354c0,0 0,0 0,0l0.00084 0.00306 0.00024 0c0.00762,0.02397 0.02301,0.03711 0.0459,0.03885 0.0015,0.00015 0.00288,0.00015 0.00426,0.00015 0.03234,0 0.05472,-0.02904 0.05958,-0.05775 0.00129,-0.00756 0.00033,-0.01647 -0.00072,-0.02589 -0.00087,-0.00852 -0.0018,-0.01743 -0.00108,-0.02508 0.00096,-0.00816 0.00363,-0.01407 0.00861,-0.01785 0.00117,0.00318 0.00318,0.00576 0.00498,0.00768l-0.00021 0.00009 0.00243 0.0021 0.00288 0.00252 0.00009 -0.00018c0.00063,0.00039 0.00117,0.00078 0.00171,0.00114l0.00318 0.00366c0.00624,0.00735 0.01293,0.01605 0.01992,0.02517 0.02631,0.0345 0.05907,0.07728 0.10035,0.08334 0.01302,0.00198 0.02649,-0.00084 0.03816,-0.00786l0.00012 0 0.00126 -0.00072 0.0069 -0.00441 -0.00063 -0.00012c0.01218,-0.01005 0.01992,-0.02424 0.02067,-0.03846z"/>
   <path class="fil1" d="M8.62894 9.7968c0.00108,-0.01452 -0.0057,-0.02865 -0.01791,-0.03777l0.00012 -0.00021 -0.00267 -0.00168c-0.00009,0 -0.00009,-0.00009 -0.00021,-0.00021l-0.00306 -0.00174 0 0c-0.03426,-0.01995 -0.08124,-0.01899 -0.13989,0.003 -0.03129,0.01176 -0.06978,0.03624 -0.07551,0.08616 -0.00129,0.01083 -0.00204,0.02247 -0.00255,0.03648l0 0 -0.00012 0.00177 -0.00021 0.00654 0.00012 0c-0.00021,0.00951 -0.00021,0.01941 -0.00012,0.02934l-0.00009 -0.00012 0.00021 0.00654 0 0.00186 0.00009 0c0.00042,0.01713 0.00129,0.03441 0.00213,0.05106 0.00096,0.01995 0.00201,0.0405 0.00234,0.06063l0.00009 0.00429 0 0c0.00054,0.02181 0.00468,0.04326 0.0279,0.05484 0.00414,0.00198 0.0087,0.00354 0.01347,0.00471l-0.00021 0.00027 0.0051 0.00099c0,0 0,0 0.00009,0l0.00222 0.00042 0.00012 -0.00012c0.00339,0.00048 0.00669,0.00084 0.00996,0.00084 0.0138,0 0.02619,-0.00441 0.0351,-0.0129 0.00309,-0.00273 0.00573,-0.00597 0.00807,-0.00957 0.01176,-0.01788 0.01242,-0.04152 0.01293,-0.06234l0.00012 -0.00537c0.00054,-0.0156 -0.00033,-0.03135 -0.00117,-0.04656 -0.00075,-0.01389 -0.00159,-0.02826 -0.00126,-0.04245l0 -0.00315c0.00051,-0.03048 0.00126,-0.07221 0.03531,-0.08256 0.00912,-0.00273 0.01929,-0.00273 0.02916,-0.00273 0.01812,-0.00015 0.03702,-0.00015 0.051,-0.01701 0.00414,-0.00492 0.00681,-0.0105 0.00828,-0.01647l0.00021 0 0.00054 -0.00294 0.00063 -0.00384 -0.00033 0z"/>
   <path class="fil1" d="M8.33677 9.97617c-0.0003,-0.01017 -0.00063,-0.01986 -0.00042,-0.02859 0.00054,-0.01923 -0.00042,-0.03738 -0.00276,-0.05406l-0.00042 -0.00276 -0.00063 -0.00423 -0.00012 0.00009c-0.00381,-0.02268 -0.01026,-0.04212 -0.01971,-0.05922 -0.0054,-0.00975 -0.0123,-0.01866 -0.02046,-0.02673l0.00021 -0.00009 -0.00351 -0.00321 -0.00192 -0.00177 -0.00009 0.00012c-0.02706,-0.02367 -0.06618,-0.03759 -0.11952,-0.04227 -0.01338,-0.00123 -0.02757,-0.00177 -0.04221,-0.00186 -0.00012,0 -0.00033,0 -0.00054,0 -0.05334,0 -0.08952,0.02253 -0.0966,0.06042 -0.00276,0.01494 0.00105,0.02976 0.01026,0.03951 0.0084,0.00891 0.02037,0.01284 0.03363,0.01143 0.01497,-0.00171 0.02895,-0.00609 0.04263,-0.01041 0.01113,-0.00348 0.0228,-0.00711 0.03447,-0.009 0.00828,-0.00138 0.0159,-0.00177 0.02313,-0.00138 0.00987,0.00072 0.01887,0.00279 0.02544,0.00612 0.00615,0.00291 0.00987,0.00669 0.01113,0.01098 0.00138,0.00462 0,0.01017 -0.0039,0.01659 -0.0123,0.01965 -0.04329,0.02061 -0.06597,0.02139 -0.00255,0 -0.00498,0.00006 -0.00723,0.00018 -0.02829,0.00117 -0.06435,0.00555 -0.09162,0.02925 -0.00615,0.00525 -0.01134,0.01152 -0.01569,0.01866l-0.00012 0 -0.00126 0.00225 -0.00234 0.00396 0.00021 0.00009c-0.00711,0.01404 -0.01071,0.03081 -0.01071,0.05007 0,0.01587 0.00318,0.03042 0.00912,0.04377l-0.00021 0 0.00201 0.00399 0.00117 0.0024 0.00021 0c0.01293,0.02397 0.03606,0.04212 0.06702,0.05244 0.02556,0.00843 0.05199,0.01149 0.0786,0.01149 0.0264,0 0.0528,-0.00306 0.0786,-0.00672 0.02067,-0.00294 0.04401,-0.00627 0.06117,-0.02052 0.00786,-0.00654 0.01389,-0.0147 0.01857,-0.02475l0.00021 0 0.00084 -0.00189 0.00225 -0.00513 -0.00045 0c0.00414,-0.01089 0.0066,-0.02394 0.00744,-0.03933l0.00021 0 0.00021 -0.00513 0 -0.00231c0.00033,-0.01146 0,-0.02286 -0.00033,-0.03384zm-0.20436 0.00132c0.00861,-0.00501 0.02025,-0.00828 0.03447,-0.00954l0.00882 -0.00075 0.0018 0c0.01716,0.00075 0.03498,0.00147 0.04293,0.02016 0.00033,0.00156 0.00054,0.00324 0.00054,0.00495 0,0.01092 -0.00582,0.02214 -0.0156,0.02985 -0.00984,0.00795 -0.02214,0.0111 -0.03381,0.0087l-0.00042 -0.00006 -0.00033 0c-0.00234,0 -0.00456,0 -0.00669,-0.00015 -0.01473,-0.00072 -0.02565,-0.00363 -0.03234,-0.00882 -0.00753,-0.00585 -0.01125,-0.0135 -0.01125,-0.02358 0,-0.00933 0.00393,-0.01614 0.01188,-0.02076z"/>
   <path class="fil1" d="M7.96762 10.06575c-0.0015,-0.02418 -0.00321,-0.04938 -0.00522,-0.07647l0 0 -0.00009 -0.00168 -0.00054 -0.00705 -0.00009 0.00009c-0.00129,-0.01686 -0.00255,-0.03375 -0.00405,-0.05049l0 0 -0.00051 -0.0069c0,-0.00054 -0.00012,-0.00096 -0.00012,-0.00141l0 -0.00042c-0.00339,-0.04038 -0.00732,-0.08343 -0.01263,-0.1392l-0.00021 -0.00246 -0.00189 -0.02085c-0.00108,-0.0111 -0.00234,-0.02337 -0.00627,-0.03486l0.00096 0.00039 -0.00435 -0.00879c0,0 0,0 0,0l-0.00054 -0.00105 -0.00009 -0.00015c-0.0138,-0.02604 -0.04401,-0.02976 -0.07203,-0.02976 -0.01908,0 -0.03912,0.00525 -0.05343,0.0141 -0.01092,0.00669 -0.0156,0.0186 -0.01974,0.02922 -0.00084,0.00219 -0.00168,0.00432 -0.00255,0.00651l0.00108 0.00042c-0.00648,0.018 -0.01347,0.03792 -0.02091,0.05949 -0.00393,0.01146 -0.00741,0.02322 -0.01071,0.0345 -0.00582,0.01941 -0.01176,0.03948 -0.01992,0.05835 -0.00087,0.00186 -0.00213,0.00447 -0.00372,0.0048 -0.00087,0.00012 -0.00222,-0.00042 -0.0036,-0.00168 -0.00309,-0.00273 -0.00501,-0.00651 -0.0069,-0.01089 -0.01326,-0.02883 -0.02334,-0.05967 -0.03321,-0.08958 -0.00423,-0.01296 -0.00858,-0.02598 -0.01305,-0.03885 -0.00825,-0.0234 -0.01845,-0.03921 -0.03222,-0.04971 -0.00063,-0.00039 -0.00117,-0.00084 -0.0018,-0.00126l-0.02229 -0.01542 0.00564 0.00669c-0.00276,-0.00102 -0.00573,-0.00198 -0.00882,-0.00282l0.00477 -0.00099 -0.02172 -0.00246 -0.00054 0 -0.00012 0c-0.00636,-0.00063 -0.01281,-0.00096 -0.01929,-0.00075 -0.02418,0.00054 -0.04167,0.00645 -0.05367,0.01794 -0.01803,0.01722 -0.01929,0.04278 -0.02058,0.06579 -0.00117,0.02271 -0.00285,0.0459 -0.00456,0.06828l-0.00138 0.01902c-0.00138,0.01899 -0.00306,0.03807 -0.00477,0.05727 -0.00402,0.04578 -0.00825,0.0933 -0.00825,0.13941 -0.00033,0.00513 -0.00045,0.00942 -0.00045,0.01347l0 0 0 0.0018 0 0 0.00024 0.00672 0.00021 -0.00021c0.00072,0.00954 0.00339,0.02079 0.01176,0.02925 0.00255,0.00264 0.00561,0.00471 0.00924,0.00669l-0.00066 0.00033 0.00765 0.00273 0.00138 0.00054 0.00009 0c0.00363,0.00126 0.00732,0.00219 0.01092,0.00291 0.01551,0.00288 0.03183,0.00288 0.04731,-0.00006 0.00519,-0.00099 0.01113,-0.00252 0.01569,-0.00645 0.00753,-0.00624 0.00924,-0.01641 0.0102,-0.02556 0.00348,-0.03342 0.00444,-0.06765 0.0054,-0.10062l0.00063 -0.02058c0,-0.04119 0.00288,-0.08292 0.00564,-0.12324l0.00051 -0.00705c0,-0.00108 0.00012,-0.00159 0.00042,-0.00129 0.00543,0.00546 0.00828,0.01683 0.0105,0.02592 0.00066,0.0024 0.00117,0.00459 0.00183,0.0066 0.00105,0.00366 0.00201,0.00744 0.00306,0.01122 0.00222,0.00852 0.00468,0.01728 0.00774,0.02577 0.00468,0.01311 0.00975,0.02625 0.01473,0.03936 0.00384,0.01002 0.00765,0.01998 0.01146,0.03015 0.00774,0.021 0.02631,0.03921 0.04965,0.04887 0.01674,0.00702 0.03456,0.00726 0.04878,0.00075 0.00837,-0.0039 0.0159,-0.00942 0.02217,-0.01662 0.01536,-0.01737 0.02259,-0.04212 0.02799,-0.06654l0 0 0.00042 -0.00222 0.00117 -0.0051 -0.00009 0c0.00072,-0.00339 0.00147,-0.00684 0.0021,-0.01017 0.00213,-0.01029 0.00405,-0.02001 0.00648,-0.02904 0.00126,-0.00471 0.00234,-0.00849 0.00351,-0.01182 0.00549,-0.01557 0.01251,-0.02646 0.02151,-0.03348 0.00075,-0.0006 0.00108,-0.00075 0.00096,-0.00081 0.00033,0.00021 0.00105,0.00156 0.00117,0.00366 0.0036,0.04026 0.00423,0.08145 0.00489,0.12126 0.00042,0.03402 0.00093,0.06909 0.00339,0.10359 0.00138,0.02013 0.00942,0.03222 0.02628,0.03894 0.012,0.00471 0.02484,0.00708 0.03765,0.00708 0.00447,0 0.00891,-0.00018 0.01338,-0.00084 0.01356,-0.00186 0.02364,-0.00657 0.0297,-0.01413 0.00825,-0.01047 0.00816,-0.02457 0.00732,-0.0381z"/>
   <path class="fil1" d="M12.60243 9.98277l0 -0.198c0,-0.00768 0.00054,-0.01665 0.00117,-0.02625 0.00213,-0.03666 0.00477,-0.08226 -0.01878,-0.10482 -0.01113,-0.01044 -0.02703,-0.01488 -0.0474,-0.01287 -0.01197,0.00117 -0.02184,0.00537 -0.02958,0.01227l-0.00033 -0.00012 -0.0018 0.0018 -0.00327 0.00336 0.0003 0.00006c-0.0108,0.01311 -0.01578,0.03285 -0.01536,0.06168l0.00009 0.01056 0 0 0.00012 0.00339c0.00021,0.02484 0.00051,0.04971 0.00075,0.07452 0.00009,0.01464 0.00009,0.02946 0.00021,0.04422l0 0.0021 0 0 0 0.00756c0.00009,0.00447 0.00009,0.00894 0.00009,0.01344l0 0.10638c0,0.00819 -0.00054,0.01722 -0.00117,0.0267 -0.00147,0.02445 -0.00318,0.05223 0.00477,0.07344 0.00594,0.01581 0.02037,0.02448 0.04392,0.02649l0.00009 0.00015 0.00138 0.00006c0,0 0,0 0,0l0.00891 0.00066 -0.0003 -0.00033c0.00105,0 0.0021,0 0.00318,0 0.00042,0 0.00096,0 0.00138,0 0.00231,0 0.00456,0 0.00666,-0.00012 0.00489,-0.00006 0.00933,-0.00081 0.01347,-0.00207l-0.00126 0.00237 0.0108 -0.00648 0.00087 -0.00054 0 -0.00006c0.02694,-0.01734 0.02418,-0.06366 0.02205,-0.09753 -0.00042,-0.00819 -0.00096,-0.01584 -0.00096,-0.02202z"/>
   <path class="fil1" d="M12.05829 10.02339c-0.00732,-0.00621 -0.01716,-0.0084 -0.02841,-0.00666 -0.00309,0.00054 -0.00615,0.00087 -0.00912,0.00105 -0.012,0.00096 -0.02874,0.00015 -0.04041,-0.00948 -0.00849,-0.00684 -0.01293,-0.01722 -0.01347,-0.03075 -0.00021,-0.00621 -0.00096,-0.01371 -0.00168,-0.02169 -0.00234,-0.02298 -0.0051,-0.05148 0.00189,-0.072l0 0c0.00489,-0.01431 0.0138,-0.02265 0.02727,-0.02571 0.00666,-0.00159 0.01452,-0.0018 0.02289,-0.00207l0.0051 -0.00021 0 0c0.0192,-0.00078 0.04359,-0.00285 0.04815,-0.03075 0.00306,-0.01947 -0.00753,-0.04227 -0.02355,-0.05076 -0.01071,-0.00567 -0.02334,-0.00699 -0.03564,-0.0084 -0.0228,-0.00249 -0.04251,-0.00471 -0.04581,-0.03267l-0.00021 -0.0018c-0.00138,-0.012 -0.00285,-0.02343 -0.00753,-0.03354l0 -0.00021 -0.00042 -0.00084 -0.00594 -0.01191 -0.00012 0.00279c-0.00339,-0.00399 -0.00741,-0.00765 -0.0123,-0.01056 -0.00222,-0.00147 -0.00465,-0.00252 -0.00708,-0.0036l0.00189 -0.00057 -0.01209 -0.00273c0,0 0,0 0,0l-0.00096 -0.00021 -0.00009 0c-0.01431,-0.00297 -0.02937,-0.00045 -0.04158,0.00711 -0.0261,0.01602 -0.02586,0.0495 -0.02514,0.07482l0 0 0.00021 0.00777c0.00033,0.01236 0.00045,0.02484 0.00045,0.0372 0.00009,0.01449 0.00009,0.02883 0,0.0432 0,0.00936 0,0.0186 0,0.0279l0 0.03732c-0.00012,0.02295 -0.00012,0.04581 0,0.06864 0,0.02454 0.00009,0.04983 0.00921,0.0729l0 0.00009 0.00042 0.00102c0,0 0,0.00015 0,0.00015l0.00393 0.0093 0.00012 -0.0006c0.00114,0.00207 0.00222,0.00396 0.00339,0.00573 0.00264,0.00399 0.00561,0.00777 0.009,0.01134l-0.00096 0 0.00786 0.00678c0.02745,0.02373 0.06597,0.02844 0.09258,0.02844 0.00465,0 0.00891,-0.00012 0.01272,-0.00033 0.021,-0.00114 0.05079,-0.00519 0.06756,-0.02631 0.00582,-0.00744 0.00921,-0.01689 0.00987,-0.0267l0.0003 0 0 -0.00294 0 -0.00411 -0.00021 0.00012c-0.00084,-0.0105 -0.00507,-0.01974 -0.01209,-0.02556z"/>
   <path class="fil1" d="M11.79381 9.9423l-0.0003 -0.00576c-0.00054,-0.00876 -0.00096,-0.01716 -0.00096,-0.0234 0,-0.01137 0.00159,-0.02313 0.00318,-0.03549 0.00351,-0.02715 0.00711,-0.05511 -0.00573,-0.07998 -0.00807,-0.01554 -0.02301,-0.0255 -0.04104,-0.02724 -0.01971,-0.00192 -0.04008,0.00606 -0.05292,0.02055l-0.00021 0 -0.00147 0.00183 0 0 -0.00033 0.00021 0 0.00015c0,0 0,0 0,0l-0.00234 0.00279 0.00012 0.00012c-0.00021,0.00036 -0.00054,0.00066 -0.00075,0.00093 -0.01422,0.02151 -0.01581,0.04857 -0.01518,0.07056l-0.00009 0 0.00009 0.00339 0.00012 0.00351 0.00009 0c0.00033,0.00693 0.00075,0.01389 0.00117,0.02049 0.00033,0.00384 0.00054,0.00762 0.00075,0.01128 0.00171,0.02811 0.0015,0.05676 0.00129,0.0843 -0.00024,0.018 -0.00033,0.03669 0.00009,0.05502 0.00054,0.02757 0.00498,0.05727 0.03342,0.06873 0.01005,0.00396 0.01941,0.00603 0.02778,0.00603 0.00159,0 0.00306,-0.00021 0.00465,-0.00039l0.00012 0.00018 0.00255 -0.00042 0.00465 -0.00069 -0.00009 -0.00021c0.01113,-0.00306 0.02025,-0.0105 0.02703,-0.02226 0.00138,-0.0024 0.00276,-0.00528 0.00402,-0.00819l0.00012 0 0.00138 -0.00357c0,0 0,0 0,0l0.00105 -0.00294 -0.00009 0c0.00636,-0.01791 0.00963,-0.04191 0.01008,-0.07329l0 0 0 -0.00183 0.00009 -0.00639 -0.00009 0c0,-0.02085 -0.00129,-0.04131 -0.00225,-0.05802z"/>
   <path class="fil1" d="M11.68065 9.71031l-0.00021 0.00012 0.00213 0.00339c0,0 0,0 0,0l0.00171 0.00249 0.00009 0c0.00192,0.00252 0.00393,0.00501 0.00615,0.00723 0.00309,0.00318 0.00627,0.00591 0.00945,0.00795 0.00879,0.006 0.01866,0.00903 0.02895,0.00903 0.00444,0 0.00912,-0.00063 0.01377,-0.00177 0.01857,-0.00459 0.03576,-0.01848 0.04539,-0.03615l0.00012 0 0.00075 -0.00147 0.00339 -0.00666 -0.00054 0.00015c0.00426,-0.01062 0.0054,-0.02157 0.0033,-0.03195 -0.00042,-0.00201 -0.00087,-0.00378 -0.0015,-0.0057l0.00063 0.00024 -0.00306 -0.00717c0,0 0,0 -0.00012,0l-0.00051 -0.00132 -0.00012 0c-0.00666,-0.01377 -0.01875,-0.02286 -0.03426,-0.02604 -0.02055,-0.00393 -0.0441,0.00285 -0.06096,0.01731l-0.00012 -0.00012 -0.00234 0.00222 -0.00273 0.00261 0.00009 0.00009c-0.00966,0.01011 -0.01527,0.02226 -0.01632,0.03549 -0.00075,0.01044 0.00168,0.02085 0.00687,0.03003z"/>
   <path class="fil1" d="M11.62 9.90126c-0.00105,-0.02646 -0.00255,-0.05913 -0.01473,-0.08691l0 -0.00012 -0.00087 -0.00186 -0.00243 -0.00525 -0.00009 0.00018c-0.0051,-0.00963 -0.01116,-0.01806 -0.01869,-0.02517 -0.00996,-0.00942 -0.02235,-0.01719 -0.03678,-0.02307l0.00021 -0.00018 -0.00519 -0.00189 -0.00213 -0.00072 0 0.00006c-0.02451,-0.00855 -0.05451,-0.01221 -0.08928,-0.01077 -0.07605,0.00327 -0.13662,0.04488 -0.15804,0.10839 -0.02067,0.06168 -0.00954,0.13275 0.02781,0.17718 0.02142,0.02547 0.05154,0.04128 0.08706,0.04572 0.01155,0.00141 0.02322,0.00102 0.03456,0.00063 0.00699,-0.00036 0.01422,-0.00057 0.02121,-0.00036 0.00699,0.00015 0.01305,0.00075 0.01857,0.00192 0.00573,0.00102 0.0105,0.003 0.01431,0.00588 0.00573,0.00435 0.00891,0.01056 0.009,0.01758 0.00012,0.00975 -0.0057,0.01953 -0.01578,0.02685 -0.02589,0.01854 -0.05949,0.01674 -0.07731,0.01416l-0.00054 -0.00015c-0.00786,-0.00123 -0.0159,-0.00363 -0.02385,-0.00591 -0.01623,-0.00498 -0.03309,-0.00978 -0.05028,-0.00555l-0.00009 -0.00024 -0.00372 0.00126c-0.00042,0.00006 -0.00084,0.00021 -0.00129,0.00027 -0.00009,0.00015 -0.00009,0.00015 -0.00021,0.00015l-0.00084 0.00033 0 0.00006c-0.01899,0.00723 -0.02427,0.02034 -0.02523,0.03009 -0.00222,0.02256 0.01536,0.04719 0.0336,0.05802 0.02589,0.01548 0.05835,0.02283 0.09165,0.02283 0.04857,0 0.09882,-0.01587 0.13341,-0.04569 0.00231,-0.00201 0.00477,-0.00447 0.00741,-0.00705l0 0.00009 0.00243 -0.00249c0,-0.00012 0,-0.00012 0.00012,-0.00012l0.00222 -0.0024 -0.00009 -0.00015c0.01578,-0.01746 0.0267,-0.03858 0.03339,-0.06435l0.00012 0.00012 0.00072 -0.00312 0.00087 -0.00369c0.0039,-0.01782 0.00615,-0.03762 0.00666,-0.06216 0.00033,-0.01308 0.00075,-0.02622 0.00117,-0.03945 0.00129,-0.03696 0.00255,-0.07524 0.00096,-0.11295zm-0.21252 0.072c-0.00933,-0.01155 -0.01464,-0.02682 -0.0156,-0.04437 -0.00201,-0.04179 0.02229,-0.08922 0.06534,-0.09267 0.02121,-0.00174 0.03405,0.01083 0.04113,0.0216 0.0189,0.02856 0.02028,0.07938 0.00297,0.11082 -0.00678,0.01248 -0.0195,0.02724 -0.04134,0.02724 -0.00246,0 -0.00468,-0.00009 -0.00702,-0.00027 -0.00666,-0.00045 -0.01302,-0.00174 -0.01875,-0.00372 -0.01083,-0.00366 -0.01974,-0.00996 -0.02673,-0.01863z"/>
   <path class="fil1" d="M11.23324 9.9423l-0.0003 -0.00576c-0.00054,-0.00876 -0.00096,-0.01716 -0.00096,-0.0234 0,-0.01137 0.00159,-0.02313 0.00318,-0.03549 0.00351,-0.02715 0.00711,-0.05511 -0.00573,-0.07998 -0.00807,-0.01554 -0.02301,-0.0255 -0.04104,-0.02724 -0.01971,-0.00192 -0.04008,0.00606 -0.05292,0.02055l-0.00021 0 -0.00147 0.00183 0 0 -0.00033 0.00021 0 0.00015c0,0 0,0 0,0l-0.00234 0.00279 0.00012 0.00012c-0.00021,0.00036 -0.00054,0.00066 -0.00075,0.00093 -0.01422,0.02151 -0.01581,0.04857 -0.01518,0.07056l-0.00009 0 0.00009 0.00339 0.00012 0.00351 0.00009 0c0.00033,0.00693 0.00075,0.01389 0.00117,0.02049 0.00033,0.00384 0.00054,0.00762 0.00075,0.01128 0.00171,0.02811 0.0015,0.05676 0.00129,0.0843 -0.00024,0.018 -0.00033,0.03669 0.00009,0.05502 0.00054,0.02757 0.00498,0.05727 0.03342,0.06873 0.01005,0.00396 0.01941,0.00603 0.02778,0.00603 0.00159,0 0.00306,-0.00021 0.00465,-0.00039l0.00012 0.00018 0.00255 -0.00042 0.00465 -0.00069 -0.00009 -0.00021c0.01113,-0.00306 0.02025,-0.0105 0.02703,-0.02226 0.00138,-0.0024 0.00276,-0.00528 0.00402,-0.00819l0.00012 0 0.00138 -0.00357c0,0 0,0 0,0l0.00105 -0.00294 -0.00009 0c0.00636,-0.01791 0.00963,-0.04191 0.01008,-0.07329l0 0 0 -0.00183 0.00009 -0.00639 -0.00009 0c0,-0.02085 -0.00129,-0.04131 -0.00225,-0.05802z"/>
   <path class="fil1" d="M11.12008 9.71031l-0.00021 0.00012 0.00213 0.00339c0,0 0,0 0,0l0.00171 0.00249 0.00009 0c0.00192,0.00252 0.00393,0.00501 0.00615,0.00723 0.00309,0.00318 0.00627,0.00591 0.00945,0.00795 0.00879,0.006 0.01866,0.00903 0.02895,0.00903 0.00444,0 0.00912,-0.00063 0.01377,-0.00177 0.01857,-0.00459 0.03576,-0.01848 0.04539,-0.03615l0.00012 0 0.00075 -0.00147 0.00339 -0.00666 -0.00054 0.00015c0.00426,-0.01062 0.0054,-0.02157 0.0033,-0.03195 -0.00042,-0.00201 -0.00087,-0.00378 -0.0015,-0.0057l0.00063 0.00024 -0.00306 -0.00717c0,0 0,0 -0.00012,0l-0.00051 -0.00132 -0.00012 0c-0.00666,-0.01377 -0.01875,-0.02286 -0.03426,-0.02604 -0.02055,-0.00393 -0.0441,0.00285 -0.06096,0.01731l-0.00012 -0.00012 -0.00234 0.00222 -0.00273 0.00261 0.00009 0.00009c-0.00966,0.01011 -0.01527,0.02226 -0.01632,0.03549 -0.00075,0.01044 0.00168,0.02085 0.00687,0.03003z"/>
   <path class="fil1" d="M11.07163 9.90324c-0.00012,-0.00429 -0.00033,-0.0087 -0.00063,-0.01302 -0.00288,-0.03867 -0.01635,-0.07959 -0.03693,-0.11259l0 -0.00009 -0.00072 -0.0012 -0.00468 -0.00744 -0.00009 0.00045c-0.00978,-0.01413 -0.02058,-0.02631 -0.03246,-0.03627l0.00054 -0.00012 -0.00414 -0.00306c-0.00012,-0.00018 -0.00033,-0.00024 -0.00042,-0.00039 -0.00066,-0.00039 -0.00117,-0.00081 -0.00171,-0.00126l-0.00213 -0.00153c-0.03975,-0.0297 -0.09672,-0.04551 -0.16947,-0.0471l-0.00084 0c-0.03924,-0.00087 -0.10509,-0.00231 -0.13374,0.02904 -0.01431,0.0156 -0.01281,0.03567 -0.01134,0.05481 0.00042,0.00465 0.00075,0.00924 0.00087,0.01362 0.00084,0.03042 0.00126,0.06126 0.00147,0.09174 0.00012,0.02274 0,0.04593 -0.00021,0.06876 -0.00012,0.00621 0,0.0123 0.00009,0.01815 0.00024,0.01017 0.00045,0.01971 -0.0003,0.02958 -0.00042,0.00657 -0.00117,0.01257 -0.00234,0.01812 -0.00222,0.01131 -0.00297,0.02247 -0.00234,0.03303l-0.00051 -0.00066 0.00159 0.0105 0.00021 0.00117 0.00009 0c0.00192,0.01197 0.00585,0.02262 0.01158,0.03177 0.01452,0.02307 0.04209,0.0396 0.07761,0.04644 0.00405,0.00075 0.00807,0.00147 0.01209,0.00198 0.01728,0.00258 0.03501,0.00399 0.05292,0.00399 0.00096,0 0.00201,0 0.00309,0l0.00189 0 0.00648 -0.00012 -0.00012 -0.00018c0.02112,-0.00066 0.0417,-0.00327 0.06132,-0.0078l0 0.00021 0.00624 -0.00156 0.0018 -0.00042 0 -0.00006c0.0279,-0.00726 0.05313,-0.01803 0.07509,-0.03231 0.0138,-0.00891 0.0264,-0.02025 0.03765,-0.03348l0.00012 0.00033 0.0039 -0.0048 0.00117 -0.00159 0 -0.00006c0.012,-0.01524 0.02184,-0.03243 0.02958,-0.0513l0.00012 0 0.00063 -0.0018 0.00234 -0.00579 -0.00021 0c0.01017,-0.02775 0.01539,-0.0579 0.01485,-0.08769zm-0.23289 -0.12669c0.00966,-0.00066 0.01962,0.00033 0.02958,0.00297 0.01644,0.00453 0.03213,0.01323 0.04422,0.02475 0.02208,0.02085 0.03543,0.05181 0.03681,0.08505 0.00021,0.00498 0.00021,0.01002 -0.00012,0.01518 -0.00339,0.06213 -0.03996,0.12612 -0.10317,0.12831 -0.01794,0.0006 -0.03246,-0.00396 -0.04233,-0.01344 -0.00879,-0.00834 -0.01347,-0.02052 -0.01347,-0.03534l0.00012 -0.15147c0,-0.02178 0.00192,-0.04065 0.02598,-0.05076 0.00678,-0.00279 0.01431,-0.00459 0.02238,-0.00525z"/>
  </g>
 </g>
</svg>
