<?xml version="1.0" encoding="UTF-8"?>
<!DOCTYPE svg PUBLIC "-//W3C//DTD SVG 1.1//EN" "http://www.w3.org/Graphics/SVG/1.1/DTD/svg11.dtd">
<!-- Creator: CorelDRAW (Versão OEM) -->
<svg xmlns="http://www.w3.org/2000/svg" xml:space="preserve" width="100%" height="100%" version="1.1" style="shape-rendering:geometricPrecision; text-rendering:geometricPrecision; image-rendering:optimizeQuality; fill-rule:evenodd; clip-rule:evenodd"
viewBox="0 0 0.76198 0.99906"
 xmlns:xlink="http://www.w3.org/1999/xlink"
 xmlns:xodm="http://www.corel.com/coreldraw/odm/2003">
 <defs>
  <style type="text/css">
   <![CDATA[
    .fil0 {fill:#E6E6E6}
   ]]>
  </style>
 </defs>
 <g id="Camada_x0020_1">
  <metadata id="CorelCorpID_0Corel-Layer"/>
  <path class="fil0" d="M0.3006 0.88293l0.15918 -0.00201c0.00032,0.06501 -0.09965,0.0532 -0.14455,0.03999l-0.01463 -0.03798zm-0.04378 -0.31384c0.08304,-0.02762 0.04761,0.04004 0.11749,0.04084 0.06136,0.00072 0.06539,-0.08368 0.11139,-0.03501 0.05142,0.04561 -0.04287,0.08736 -0.07124,0.10987 -0.00234,0.03507 0.01041,0.0906 -0.03354,0.09755 -0.05595,0.00883 -0.04272,-0.06108 -0.04406,-0.09755 -0.04211,-0.03474 -0.10123,-0.03738 -0.08004,-0.1157zm0.49805 -0.11795c0.04833,-0.24517 -0.15621,-0.47403 -0.41166,-0.44931 -0.25091,0.02429 -0.40714,0.28782 -0.31788,0.51734 0.05269,0.13552 0.16707,0.18003 0.19574,0.24301 0.04906,0.10769 -0.06809,0.25734 0.20101,0.23456 0.18297,-0.01547 0.0468,-0.17664 0.15704,-0.2798 0.09583,-0.08969 0.14866,-0.12844 0.17575,-0.2658z"/>
 </g>
</svg>
