<?xml version="1.0" encoding="UTF-8"?>
<!DOCTYPE svg PUBLIC "-//W3C//DTD SVG 1.1//EN" "http://www.w3.org/Graphics/SVG/1.1/DTD/svg11.dtd">
<!-- Creator: CorelDRAW (Versão OEM) -->
<svg xmlns="http://www.w3.org/2000/svg" xml:space="preserve" width="100%" height="100%" version="1.1" style="shape-rendering:geometricPrecision; text-rendering:geometricPrecision; image-rendering:optimizeQuality; fill-rule:evenodd; clip-rule:evenodd"
viewBox="0 0 1.27 1.26998"
 xmlns:xlink="http://www.w3.org/1999/xlink"
 xmlns:xodm="http://www.corel.com/coreldraw/odm/2003">
 <defs>
  <style type="text/css">
   <![CDATA[
    .fil3 {fill:#FEFEFE;fill-rule:nonzero}
    .fil16 {fill:#F497B8;fill-rule:nonzero}
    .fil8 {fill:#F37F73;fill-rule:nonzero}
    .fil1 {fill:#E5E6E5;fill-rule:nonzero}
    .fil10 {fill:#DDE0DF;fill-rule:nonzero}
    .fil0 {fill:#D4D6D5;fill-rule:nonzero}
    .fil11 {fill:#D4D6D5;fill-rule:nonzero}
    .fil12 {fill:#C2C4C4;fill-rule:nonzero}
    .fil13 {fill:#C2C4C4;fill-rule:nonzero}
    .fil2 {fill:#BEC1C1;fill-rule:nonzero}
    .fil7 {fill:#9EA1A2;fill-rule:nonzero}
    .fil14 {fill:#9EA1A2;fill-rule:nonzero}
    .fil21 {fill:#9EABAE;fill-rule:nonzero}
    .fil19 {fill:#2A2C2D;fill-rule:nonzero}
    .fil17 {fill:#42616A;fill-rule:nonzero}
    .fil18 {fill:#3C565E;fill-rule:nonzero}
    .fil20 {fill:#3B555C;fill-rule:nonzero}
    .fil6 {fill:#384E55;fill-rule:nonzero}
    .fil4 {fill:#2C3C43;fill-rule:nonzero}
    .fil15 {fill:#2A393E;fill-rule:nonzero}
    .fil9 {fill:#BA4932;fill-rule:nonzero}
    .fil5 {fill:#CD533B;fill-rule:nonzero}
   ]]>
  </style>
 </defs>
 <g id="Camada_x0020_1">
  <metadata id="CorelCorpID_0Corel-Layer"/>
  <line class="fil0" x1="0.00001" y1="0.01297" x2="0.00001" y2= "0.01297" />
  <path class="fil1" d="M0.22418 1.00546l-0.00039 -0.01595c-0.00013,-0.00525 -0.00031,-0.01045 -0.00037,-0.01561l0.00076 0.00075c-0.01245,0.00014 -0.0249,0.00043 -0.03734,0.00045l-0.03734 0.00017 0.00137 -0.00137 -0.00015 0.03156 -0.00122 -0.00123c0.00615,0.00004 0.01229,0.00002 0.01846,0.00015l0.01856 0.00031 0.03766 0.00077zm0 0l-0.03703 0.00076 -0.01878 0.00031c-0.00627,0.00013 -0.01258,0.0001 -0.01887,0.00015l-0.00123 0.00001 0 -0.00123 -0.00015 -0.03156 -0.00001 -0.00139 0.00139 0.00001 0.03734 0.00017c0.01244,0.00002 0.02489,0.00031 0.03734,0.00046l0.00076 0 -0.00001 0.00075c-0.00005,0.00535 -0.00024,0.01067 -0.00036,0.01594l-0.00039 0.01562z"/>
  <path class="fil1" d="M0.18252 1.04525l-0.00039 -0.01594c-0.00013,-0.00526 -0.00031,-0.01045 -0.00036,-0.01562l0.00075 0.00075c-0.01245,0.00014 -0.0249,0.00044 -0.03734,0.00045l-0.03734 0.00018 0.00137 -0.00138 -0.00015 0.03156 -0.00122 -0.00123c0.00615,0.00005 0.01229,0.00002 0.01846,0.00015l0.01856 0.00031 0.03766 0.00077zm0 0l-0.03702 0.00077 -0.01879 0.0003c-0.00627,0.00013 -0.01258,0.00011 -0.01887,0.00016l-0.00122 0 -0.00001 -0.00123 -0.00015 -0.03156 0 -0.00139 0.00138 0.00001 0.03734 0.00018c0.01244,0.00001 0.02489,0.00031 0.03734,0.00045l0.00076 0 -0.00001 0.00075c-0.00005,0.00535 -0.00024,0.01067 -0.00036,0.01594l-0.00039 0.01562z"/>
  <polygon class="fil1" points="0.26584,1.04525 0.19116,1.04525 0.19116,1.01369 0.26584,1.01369 "/>
  <path class="fil1" d="M1.00383 0.53722l-0.0004 -0.01594c-0.00012,-0.00525 -0.0003,-0.01045 -0.00036,-0.01562l0.00076 0.00076c-0.01245,0.00014 -0.0249,0.00043 -0.03734,0.00045l-0.03735 0.00017 0.00138 -0.00138 -0.00015 0.03156 -0.00123 -0.00123c0.00616,0.00005 0.0123,0.00003 0.01847,0.00015l0.01856 0.00031 0.03766 0.00077zm0 0l-0.03703 0.00077 -0.01878 0.00031c-0.00627,0.00013 -0.01258,0.0001 -0.01888,0.00015l-0.00122 0.00001 0 -0.00124 -0.00015 -0.03156 -0.00001 -0.00138 0.00138 0.00001 0.03735 0.00017c0.01244,0.00001 0.02489,0.00031 0.03734,0.00045l0.00076 0.00001 -0.00001 0.00074c-0.00005,0.00536 -0.00024,0.01068 -0.00036,0.01595l-0.00039 0.01561z"/>
  <polygon class="fil1" points="0.88749,0.57701 0.96217,0.57701 0.96217,0.54546 0.88749,0.54546 "/>
  <path class="fil1" d="M1.04549 0.57701l-0.0004 -0.01594c-0.00012,-0.00525 -0.0003,-0.01045 -0.00036,-0.01561l0.00076 0.00075c-0.01245,0.00014 -0.0249,0.00044 -0.03735,0.00045l-0.03734 0.00017 0.00138 -0.00137 -0.00015 0.03155 -0.00123 -0.00123c0.00616,0.00005 0.0123,0.00003 0.01847,0.00016l0.01856 0.0003 0.03766 0.00077zm0 0l-0.03703 0.00077 -0.01878 0.00031c-0.00627,0.00013 -0.01258,0.0001 -0.01888,0.00015l-0.00122 0.00001 0 -0.00124 -0.00015 -0.03155 -0.00001 -0.00139 0.00138 0.00001 0.03734 0.00017c0.01245,0.00002 0.0249,0.00031 0.03735,0.00045l0.00075 0.00001 0 0.00075c-0.00005,0.00535 -0.00024,0.01067 -0.00036,0.01594l-0.00039 0.01561z"/>
  <polygon class="fil1" points="1.22835,1.04525 1.15367,1.04525 1.15367,1.01369 1.22835,1.01369 "/>
  <path class="fil1" d="M1.22835 0.1636l-0.00039 -0.01594c-0.00012,-0.00526 -0.00031,-0.01045 -0.00036,-0.01562l0.00075 0.00075c-0.01245,0.00014 -0.02489,0.00044 -0.03734,0.00045l-0.03734 0.00018 0.00138 -0.00138 -0.00015 0.03156 -0.00123 -0.00123c0.00616,0.00005 0.0123,0.00002 0.01847,0.00015l0.01855 0.00031 0.03766 0.00077zm0 0l-0.03702 0.00077 -0.01878 0.0003c-0.00628,0.00013 -0.01259,0.00011 -0.01888,0.00016l-0.00122 0 -0.00001 -0.00123 -0.00015 -0.03156 0 -0.00138 0.00138 0 0.03734 0.00018c0.01245,0.00001 0.02489,0.00031 0.03734,0.00045l0.00076 0 -0.00001 0.00075c-0.00005,0.00535 -0.00023,0.01067 -0.00036,0.01594l-0.00039 0.01562z"/>
  <polygon class="fil1" points="1.27001,0.20339 1.19533,0.20339 1.19533,0.17183 1.27001,0.17183 "/>
  <path class="fil1" d="M0.18252 0.16363l-0.00039 -0.01594c-0.00013,-0.00525 -0.00031,-0.01045 -0.00036,-0.01562l0.00075 0.00076c-0.01245,0.00014 -0.0249,0.00043 -0.03734,0.00045l-0.03734 0.00017 0.00137 -0.00138 -0.00015 0.03156 -0.00122 -0.00123c0.00615,0.00005 0.01229,0.00003 0.01846,0.00016l0.01856 0.0003 0.03766 0.00077zm0 0l-0.03702 0.00077 -0.01879 0.00031c-0.00627,0.00013 -0.01258,0.0001 -0.01887,0.00015l-0.00122 0.00001 -0.00001 -0.00124 -0.00015 -0.03156 0 -0.00138 0.00138 0.00001 0.03734 0.00017c0.01244,0.00001 0.02489,0.00031 0.03734,0.00045l0.00076 0.00001 -0.00001 0.00074c-0.00005,0.00536 -0.00024,0.01068 -0.00036,0.01594l-0.00039 0.01562z"/>
  <polygon class="fil1" points="0.32813,0.65623 0.25345,0.65623 0.25345,0.62467 0.32813,0.62467 "/>
  <polygon class="fil1" points="0.65108,0.98882 0.5764,0.98882 0.5764,0.95726 0.65108,0.95726 "/>
  <path class="fil1" d="M0.5558 0.2689l0.0004 0.01594c0.00012,0.00525 0.00031,0.01045 0.00036,0.01561l-0.00075 -0.00075c0.01244,-0.00014 0.02489,-0.00044 0.03734,-0.00045l0.03733 -0.00017 -0.00137 0.00137 0.00015 -0.03155 0.00122 0.00123c-0.00615,-0.00005 -0.01229,-0.00003 -0.01846,-0.00016l-0.01856 -0.0003 -0.03766 -0.00077zm0 0l0.03703 -0.00077 0.01878 -0.00031c0.00628,-0.00013 0.01258,-0.0001 0.01887,-0.00015l0.00123 -0.00001 0 0.00124 0.00015 0.03155 0.00001 0.00139 -0.00139 -0.00001 -0.03733 -0.00017c-0.01245,-0.00002 -0.0249,-0.00031 -0.03734,-0.00045l-0.00076 -0.00001 0 -0.00075c0.00005,-0.00535 0.00024,-0.01067 0.00036,-0.01594l0.00039 -0.01561z"/>
  <path class="fil1" d="M0.59746 0.2291l0.00039 0.01595c0.00013,0.00525 0.00031,0.01045 0.00037,0.01561l-0.00076 -0.00075c0.01245,-0.00014 0.0249,-0.00044 0.03735,-0.00045l0.03733 -0.00018 -0.00137 0.00138 0.00015 -0.03156 0.00122 0.00123c-0.00615,-0.00005 -0.01229,-0.00002 -0.01846,-0.00015l-0.01856 -0.00031 -0.03766 -0.00077zm0 0l0.03703 -0.00076 0.01878 -0.00031c0.00628,-0.00013 0.01258,-0.00011 0.01887,-0.00015l0.00123 -0.00001 0 0.00123 0.00015 0.03156 0.00001 0.00138 -0.00139 0 -0.03733 -0.00018c-0.01245,-0.00001 -0.0249,-0.00031 -0.03735,-0.00045l-0.00075 -0.00001 0 -0.00074c0.00005,-0.00535 0.00024,-0.01067 0.00036,-0.01594l0.00039 -0.01562z"/>
  <polygon class="fil2" points="0.22972,0.30684 0.23248,0.30684 0.23248,0.01297 0.22972,0.01297 "/>
  <polygon class="fil1" points="0.32817,0.40042 0.32036,0.41758 0.14181,0.41758 0.13403,0.40042 0.21004,0.3478 0.25215,0.3478 "/>
  <polygon class="fil0" points="0.25743,0.29711 0.25215,0.3478 0.21004,0.3478 0.20477,0.29711 "/>
  <polygon class="fil0" points="0.32816,0.40042 0.32035,0.41759 0.14181,0.41759 0.13402,0.40042 "/>
  <polygon class="fil2" points="0.40999,0.17911 0.41274,0.17911 0.41274,0.01297 0.40999,0.01297 "/>
  <polygon class="fil1" points="0.50843,0.27269 0.50063,0.28985 0.32208,0.28985 0.3143,0.27269 0.39031,0.22007 0.43242,0.22007 "/>
  <polygon class="fil0" points="0.4377,0.16938 0.43242,0.22007 0.39031,0.22007 0.38503,0.16938 "/>
  <polygon class="fil0" points="0.50843,0.27269 0.50062,0.28986 0.32207,0.28986 0.31429,0.27269 "/>
  <polygon class="fil3" points="1.02646,0.22731 1.02646,0.37359 0.88019,0.37359 0.88019,0.22731 "/>
  <path class="fil0" d="M1.02646 0.37359l-0.14627 0 0 -0.14628 0.14627 0 0 0.14628zm-0.15388 -0.15389l0 0.1615 0.16149 0 0 -0.1615 -0.16149 0z"/>
  <polygon class="fil1" points="0.90193,0.34526 0.90193,0.2947 1.01594,0.2947 1.01594,0.34526 "/>
  <polygon class="fil2" points="0.92412,0.32966 0.92412,0.27125 0.98254,0.27125 0.98254,0.32966 "/>
  <polygon class="fil2" points="1.04032,0.2197 1.03408,0.2197 1.03408,0.38121 1.04032,0.38121 "/>
  <polygon class="fil3" points="0.82057,0.22731 0.82057,0.37359 0.6743,0.37359 0.6743,0.22731 "/>
  <polygon class="fil2" points="0.73763,0.25072 0.73763,0.36105 0.69944,0.36105 0.69944,0.25072 "/>
  <path class="fil0" d="M0.82057 0.37359l-0.14627 0 0 -0.14628 0.14627 0 0 0.14628zm-0.15388 -0.15389l0 0.1615 0.16149 0 0 -0.1615 -0.16149 0z"/>
  <polygon class="fil1" points="0.77664,0.27125 0.77664,0.32966 0.71823,0.32966 0.71823,0.27125 "/>
  <polygon class="fil2" points="0.83443,0.2197 0.82819,0.2197 0.82819,0.38121 0.83443,0.38121 "/>
  <polygon class="fil3" points="1.23656,0.22731 1.23656,0.37359 1.09028,0.37359 1.09028,0.22731 "/>
  <polygon class="fil1" points="1.18677,0.24725 1.18677,0.29524 1.10651,0.29524 1.10651,0.24725 "/>
  <path class="fil0" d="M1.23656 0.37359l-0.14628 0 0 -0.14628 0.14628 0 0 0.14628zm-0.15389 -0.15389l0 0.1615 0.1615 0 0 -0.1615 -0.1615 0z"/>
  <polygon class="fil2" points="1.19262,0.27125 1.19262,0.32966 1.13422,0.32966 1.13422,0.27125 "/>
  <polygon class="fil2" points="1.25041,0.2197 1.24418,0.2197 1.24418,0.38121 1.25041,0.38121 "/>
  <polygon class="fil4" points="0.10784,1.25566 0.25311,1.25499 0.39838,1.25475 0.68892,1.25429 0.97947,1.25474 1.12474,1.25498 1.27001,1.25566 1.12474,1.25633 0.97947,1.25657 0.68892,1.25704 0.39838,1.25657 0.25311,1.25633 "/>
  <path class="fil4" d="M0.23889 0.94326c0.00096,-0.01392 0.00266,-0.02786 0.00589,-0.04145 0.00293,-0.01227 0.00707,-0.02481 0.01481,-0.03496 0.00707,-0.00926 0.01723,-0.01664 0.02903,-0.01808 0.01136,-0.00139 0.02204,0.00367 0.03055,0.01084 0.01053,0.00887 0.0186,0.02062 0.02617,0.032 0.00847,0.01274 0.01568,0.02598 0.02261,0.03958 0.00023,0.00045 -0.00046,0.00083 -0.00068,0.00038 -0.00572,-0.0115 -0.01275,-0.02268 -0.02022,-0.03312 -0.00705,-0.00987 -0.01459,-0.0197 -0.02329,-0.02819 -0.0078,-0.00762 -0.01771,-0.01474 -0.02902,-0.0151 -0.01125,-0.00036 -0.02163,0.00595 -0.02841,0.01463 -0.00757,0.00969 -0.01142,0.0218 -0.01431,0.03359 -0.00317,0.01295 -0.00475,0.0262 -0.00583,0.03947 -0.00222,0.0273 -0.00282,0.05476 -0.00344,0.08214 -0.00035,0.01549 -0.00056,0.03099 -0.0007,0.04648 -0.00007,0.00785 -0.00013,0.0157 -0.00019,0.02355 -0.00006,0.00757 0.00034,0.01524 -0.00091,0.02271 -0.00025,0.00153 -0.00275,0.00138 -0.00301,-0.00007 -0.00124,-0.00707 -0.00094,-0.01434 -0.00104,-0.02152 -0.0001,-0.00744 -0.0002,-0.01488 -0.00026,-0.02232 -0.00013,-0.01447 -0.00021,-0.02894 -0.00016,-0.04341 0.00008,-0.02903 0.00043,-0.05818 0.00241,-0.08715z"/>
  <path class="fil5" d="M0.31184 0.89467c0.00397,0.00253 -0.0019,0.01723 -0.00804,0.01278 -0.00522,-0.0038 0.00403,-0.01534 0.00804,-0.01278zm0.079 0.02482c0.00327,-0.00395 0.01839,0.00766 0.01402,0.01401 -0.00438,0.00635 -0.01823,-0.00896 -0.01402,-0.01401zm-0.11293 0.00318c0.00144,-0.00772 0.00405,-0.01778 0.00845,-0.02376 0.0079,-0.01075 0.01644,-0.00607 0.00855,0.00583 -0.00862,0.01299 -0.00986,0.02326 -0.0111,0.02935 0,0 0.01329,0.01898 0.02932,0.02832 -0.00068,-0.00729 -0.00274,-0.01852 -0.00132,-0.02935 0.00308,-0.02344 0.01726,-0.02212 0.01376,-0.0035 -0.00282,0.01494 -0.00397,0.0308 -0.00321,0.03767 0.00482,0.00365 0.01303,0.00679 0.01714,0.0084 -0.00092,-0.00272 -0.0019,-0.00598 -0.00298,-0.00994 -0.00569,-0.02102 0.00833,-0.02758 0.00877,-0.01575 0.00035,0.00972 0.00411,0.02479 0.00546,0.02982 0.00769,0.00258 0.01407,0.00435 0.01796,0.00572 0.01621,0.00569 0.0263,0.01797 0.0263,0.01797 0.00735,-0.00654 0.01327,-0.01447 0.01791,-0.02319 -0.0049,-0.00421 -0.01264,-0.01048 -0.02339,-0.01807 -0.02016,-0.01423 -0.01315,-0.03219 0.00284,-0.02102 0.01154,0.00806 0.02047,0.023 0.02453,0.03066 0.00556,-0.01327 0.00848,-0.02784 0.00914,-0.04196 -0.01583,-0.01486 -0.05498,-0.03557 -0.04318,-0.03557 0.01062,0 0.03438,0.01557 0.0431,0.02158 -0.00024,-0.00419 -0.00069,-0.00828 -0.00134,-0.0122 -0.01491,-0.00977 -0.06336,-0.02498 -0.05564,-0.02935 0.00848,-0.00479 0.04228,0.01085 0.0525,0.01581 -0.00224,-0.00727 -0.00527,-0.0136 -0.00896,-0.01855 -0.0206,-0.02758 -0.05775,-0.03708 -0.07395,-0.03183 -0.01147,0.00372 -0.00812,0.03282 -0.01058,0.03183 -0.04608,-0.01854 -0.06703,-0.00544 -0.05008,0.05108z"/>
  <path class="fil4" d="M0.31787 0.89918c0.00208,-0.00412 0.00425,-0.00821 0.00662,-0.01216 0.00226,-0.00376 0.00466,-0.00777 0.00761,-0.01104 -0.00066,-0.0008 -0.00129,-0.00163 -0.00196,-0.00242 -0.00028,-0.00032 0.00019,-0.00078 0.00047,-0.00046 0.00078,0.00088 0.00151,0.00178 0.00226,0.00268l0.00032 0.00037c0.00285,0.00342 0.00553,0.00693 0.00809,0.01052 0.00453,0.00095 0.009,0.00241 0.01338,0.00387 0.00452,0.00152 0.009,0.00309 0.01339,0.00494 0.00046,0.00019 0.00023,0.00095 -0.00023,0.00075 -0.00435,-0.00193 -0.00876,-0.00379 -0.01327,-0.00531 -0.00427,-0.00144 -0.00861,-0.00256 -0.01293,-0.00378 0.00141,0.00199 0.00279,0.00399 0.00411,0.00602 0.00812,0.00234 0.01606,0.00604 0.02366,0.00965 0.008,0.0038 0.0157,0.00822 0.02335,0.01265 0.00044,0.00025 0.00002,0.00092 -0.00041,0.00066 -0.0075,-0.00449 -0.01531,-0.00832 -0.02322,-0.01202 -0.00741,-0.00347 -0.01508,-0.00632 -0.02255,-0.00962 0.01881,0.02936 0.0301,0.06324 0.04518,0.09461 0.00022,0.00045 -0.00049,0.00083 -0.00068,0.00037 -0.00461,-0.011 -0.00991,-0.02172 -0.01493,-0.03254 -0.0045,-0.00971 -0.00889,-0.01948 -0.0134,-0.02919 -0.00132,-0.00285 -0.00268,-0.00569 -0.00406,-0.00852 0.00082,0.01569 0.00049,0.03164 0.00306,0.04714 0.00009,0.00055 -0.00073,0.00065 -0.00077,0.00009 -0.00109,-0.01676 -0.00404,-0.03326 -0.00392,-0.05011l0.00009 -0.00022c-0.00319,-0.00641 -0.00659,-0.01273 -0.01027,-0.01888 -0.00623,0.01468 -0.01278,0.02958 -0.01569,0.04534 -0.00009,0.00048 -0.00088,0.00026 -0.00075,-0.00023 0.00424,-0.0158 0.00817,-0.03162 0.01578,-0.04622 -0.00402,-0.00664 -0.00841,-0.01304 -0.01325,-0.0191 -0.00209,0.0039 -0.00478,0.00759 -0.00715,0.01132 -0.00232,0.00364 -0.0046,0.00731 -0.00675,0.01106 -0.00459,0.00801 -0.00862,0.01619 -0.01177,0.02487 -0.00017,0.00047 -0.00094,0.00023 -0.00074,-0.00023 0.00358,-0.00835 0.00722,-0.01675 0.01133,-0.02486z"/>
  <path class="fil4" d="M0.16956 0.93487c0.01207,-0.0121 0.02611,-0.028 0.04477,-0.02797 0.018,0.00003 0.03126,0.01454 0.03887,0.02949 0.00797,0.01565 0.01083,0.03337 0.01307,0.05059 0.0027,0.02062 0.00419,0.04141 0.00478,0.0622 0.00033,0.01155 0.00028,0.02311 0,0.03466 -0.00029,0.01165 -0.00057,0.02347 -0.00265,0.03496 -0.00034,0.00187 -0.00332,0.00194 -0.00344,-0.00008 -0.00054,-0.00972 -0.00015,-0.01949 -0.0001,-0.02922 0.00005,-0.00958 -0.0001,-0.01917 -0.00045,-0.02875 -0.00071,-0.01937 -0.00212,-0.03872 -0.00439,-0.05798 -0.00199,-0.01682 -0.00357,-0.03411 -0.0086,-0.05036 -0.00454,-0.01466 -0.01305,-0.03142 -0.02791,-0.03786 -0.02027,-0.00878 -0.04008,0.00727 -0.05335,0.02082 -0.00035,0.00036 -0.00095,-0.00014 -0.0006,-0.0005z"/>
  <path class="fil5" d="M0.16597 0.98147c0.0051,-0.00203 0.01306,0.01064 0.0075,0.01355 -0.00555,0.0029 -0.01167,-0.01187 -0.0075,-0.01355zm0.04939 -0.01675c0.00098,-0.00261 0.00798,0.00035 0.00735,0.0036 -0.00088,0.00434 -0.00831,-0.001 -0.00735,-0.0036zm-0.08946 -0.02646c-0.00102,-0.00478 0.00944,-0.00615 0.01118,-0.00227 0.00145,0.0033 -0.01019,0.00705 -0.01118,0.00227zm-0.01794 0.02367l0 0.00003c0.00009,0.00247 0.00024,0.00492 0.0004,0.00731 0.00552,-0.00388 0.01244,-0.0074 0.01979,-0.0082 0.01714,-0.00182 0.01604,0.01121 0.0046,0.01176 -0.01092,0.00052 -0.01825,0.00237 -0.02352,0.00471 0.0028,0.02262 0.00902,0.04082 0.00996,0.04106 0.00093,0.00022 0.02188,-0.00128 0.04527,-0.00572 -0.00425,-0.00908 -0.01396,-0.02115 -0.00902,-0.02212 0.00507,-0.00101 0.01036,0.00976 0.0131,0.02129 0.01128,-0.00228 0.0229,-0.00526 0.03293,-0.00906 -0.00754,-0.00652 -0.01919,-0.01465 -0.01474,-0.0181 0.00445,-0.00349 0.0137,0.00797 0.01924,0.01627 0.00551,-0.00234 0.01039,-0.00498 0.01423,-0.00793 -0.01015,-0.01492 -0.0349,-0.01795 -0.03167,-0.02874 0.0033,-0.011 0.02639,0.00418 0.03678,0.02415 0.01221,-0.01267 0.01579,-0.03059 0.01451,-0.0459 -0.01064,-0.00124 -0.0311,0.00101 -0.02962,-0.00663 0.00139,-0.00727 0.01626,-0.00619 0.02837,-0.00173 -0.00149,-0.00694 -0.00401,-0.01286 -0.00711,-0.01683 -0.01121,-0.01439 -0.04541,0.00391 -0.04541,0.00391 0,0 0.00366,-0.03438 -0.00939,-0.04033 -0.00752,-0.00341 -0.02079,-0.00338 -0.0341,0.00446 0.00747,0.00061 0.01649,0.00298 0.02012,0.00816 0.00464,0.00661 -0.00268,0.0102 -0.00734,0.00716 -0.00327,-0.00217 -0.00939,-0.00897 -0.02043,-0.00987 -0.00429,0.00355 -0.00848,0.00808 -0.01235,0.01367 -0.00126,0.00178 -0.00244,0.00366 -0.00361,0.00569 0.01076,-0.00447 0.025,-0.00676 0.04005,0.00072 0.01483,0.00737 0.00654,0.02277 -0.00622,0.01678 -0.01262,-0.00591 -0.02491,-0.01186 -0.03843,-0.00847 -0.00497,0.01144 -0.00662,0.025 -0.00651,0.03834 0.00508,-0.00367 0.01257,-0.00806 0.02197,-0.01054 0.01474,-0.00387 0.0192,0.00493 0.003,0.00658 -0.01029,0.00104 -0.01894,0.00481 -0.02485,0.00812z"/>
  <path class="fil4" d="M0.12119 1.01599c0.00768,-0.01285 0.01527,-0.02576 0.02334,-0.03838 0.00376,-0.00587 0.0077,-0.01163 0.01178,-0.01728 -0.00061,-0.00012 -0.00123,-0.0003 -0.00183,-0.00043 -0.00101,-0.00021 -0.00203,-0.00041 -0.00306,-0.00059 -0.00236,-0.00041 -0.00474,-0.00075 -0.00712,-0.00099 -0.00224,-0.00023 -0.00449,-0.00035 -0.00675,-0.00037 -0.00234,-0.00004 -0.0049,-0.00011 -0.00721,0.00037 -0.00029,0.00007 -0.00033,-0.00039 -0.00006,-0.00038 0.0024,0.0001 0.00486,-0.00022 0.00727,-0.00025 0.00233,-0.00003 0.00467,0.00003 0.007,0.00016 0.00219,0.00014 0.00437,0.00035 0.00654,0.00068 0.00119,0.00019 0.00239,0.0004 0.00358,0.00063 0.00071,0.00014 0.00146,0.00025 0.00216,0.00046 0.00416,-0.00572 0.00848,-0.01133 0.01294,-0.01683 -0.01347,-0.00619 -0.02733,-0.01129 -0.04206,-0.01342l0.0001 -0.00038c0.01467,0.00235 0.02939,0.00614 0.04267,0.01294 0.00245,-0.00301 0.00492,-0.00601 0.00741,-0.009 0.00278,-0.00334 0.00575,-0.00661 0.00827,-0.01016l0.00031 0.00023c-0.00349,0.00372 -0.00664,0.00783 -0.00975,0.01194l0.00007 0.00001c0.00555,0.00371 0.01065,0.00814 0.01564,0.01256 0.00511,0.00453 0.0101,0.00922 0.01494,0.01403l-0.00026 0.00028c-0.0048,-0.00476 -0.00976,-0.0093 -0.01496,-0.01362 -0.00519,-0.00432 -0.01065,-0.00828 -0.01588,-0.01255l-0.00004 -0.00008c-0.00119,0.00158 -0.00238,0.00316 -0.00357,0.00471 -0.00061,0.00078 -0.00121,0.00157 -0.00181,0.00236l-0.00013 0.00017c-0.002,0.0026 -0.00399,0.00521 -0.00597,0.00783 0.00242,0.00324 0.00421,0.00707 0.00594,0.01071 0.00172,0.00363 0.00322,0.00737 0.0046,0.01114 0.00286,0.0078 0.00478,0.01594 0.00641,0.02407l-0.00037 0.00012c-0.00154,-0.0081 -0.00408,-0.01591 -0.007,-0.0236 -0.00149,-0.00393 -0.00319,-0.00776 -0.00495,-0.01158 -0.00159,-0.00348 -0.00353,-0.00682 -0.00502,-0.01033 -0.00172,0.00229 -0.00344,0.00459 -0.00513,0.00691 -0.00049,0.00067 -0.00095,0.00136 -0.00144,0.00204l-0.00017 0.00035 -0.00008 0c-0.00528,0.00737 -0.0103,0.01491 -0.01519,0.02255 0.00034,0.00049 0.00048,0.00109 0.00067,0.00166 0.00032,0.00093 0.00061,0.00187 0.00088,0.00281 0.00055,0.00188 0.00099,0.00378 0.00134,0.00571 0.00033,0.00182 0.00059,0.00364 0.00077,0.00547 0.0002,0.00202 0.00001,0.00426 0.00046,0.00622 0.00007,0.00031 -0.00043,0.00033 -0.00038,0.00001 0.0003,-0.00183 -0.00017,-0.00397 -0.00042,-0.0058 -0.00028,-0.00198 -0.00065,-0.00396 -0.00111,-0.00591 -0.00041,-0.00176 -0.00089,-0.00352 -0.00141,-0.00526 -0.00027,-0.00087 -0.00055,-0.00173 -0.00085,-0.00259 -0.00015,-0.00046 -0.00038,-0.00094 -0.00053,-0.00142 -0.00229,0.00358 -0.00455,0.00719 -0.00678,0.01081 -0.00443,0.00718 -0.00881,0.01439 -0.01322,0.02158 -0.00023,0.00036 -0.0008,0.00005 -0.00058,-0.00032z"/>
  <path class="fil4" d="M0.23969 1.11465c0.0002,-0.00728 0.00135,-0.01461 0.00214,-0.02185 0.00079,-0.00728 0.00161,-0.01455 0.00239,-0.02182 0.0015,-0.01402 0.00233,-0.02836 0.00563,-0.0421 0.00284,-0.01183 0.00805,-0.02315 0.01713,-0.03149 0.00459,-0.00421 0.01043,-0.00767 0.01679,-0.00802 0.00651,-0.00035 0.01251,0.0019 0.01784,0.0055 0.00607,0.0041 0.01076,0.00991 0.015,0.01581 0.00437,0.00607 0.00824,0.01235 0.0117,0.01899 0.00013,0.00025 -0.00027,0.0004 -0.0004,0.00017 -0.00639,-0.01107 -0.01518,-0.02061 -0.02531,-0.02835 -0.00466,-0.00357 -0.01001,-0.00625 -0.01595,-0.00665 -0.00588,-0.0004 -0.01114,0.00241 -0.01546,0.00617 -0.00849,0.00738 -0.01341,0.01824 -0.01633,0.0289 -0.00347,0.01264 -0.0046,0.02593 -0.00633,0.03889 -0.00103,0.0077 -0.00201,0.01541 -0.00303,0.02312 -0.00101,0.00766 -0.00165,0.01552 -0.00327,0.02308 -0.00036,0.00162 -0.00258,0.00129 -0.00254,-0.00035z"/>
  <path class="fil5" d="M0.30134 1.05147c0.00395,0.00055 0.00619,0.01465 -0.0006,0.01437 -0.00517,-0.00022 -0.00274,-0.01485 0.0006,-0.01437zm0.06281 -0.00223c-0.00024,-0.0024 0.0048,-0.00281 0.00594,0.0002 0.00077,0.00197 -0.00573,0.00216 -0.00594,-0.0002zm-0.01878 -0.03819c-0.00058,-0.00366 0.01109,-0.00454 0.0117,0.00016 0.0007,0.00527 -0.01111,0.00357 -0.0117,-0.00016zm-0.06986 0.04706c0.0021,0.00293 0.00478,0.0056 0.00792,0.00809 -0.0012,-0.00711 -0.00265,-0.01974 0.00094,-0.02645 0.00557,-0.01044 0.01216,-0.00524 0.00884,0.00384 -0.00478,0.01295 -0.00541,0.0217 -0.00536,0.02572 0.00706,0.00465 0.01558,0.0084 0.02419,0.01142 -0.00076,-0.0035 -0.00125,-0.00783 -0.0008,-0.01245 0.00111,-0.01116 0.00966,-0.01096 0.00744,0.00065 -0.00098,0.00503 -0.00118,0.00985 -0.00117,0.01364 0.01949,0.00611 0.03769,0.0085 0.03769,0.0085 0.00725,-0.00967 0.01235,-0.01895 0.0156,-0.02777 -0.00908,-0.00228 -0.02747,-0.0028 -0.02708,-0.00929 0.00052,-0.00873 0.01834,-0.00201 0.02876,0.00433 0.00256,-0.00836 0.00346,-0.01626 0.00315,-0.0235 -0.00407,-0.00134 -0.0116,-0.00299 -0.02505,-0.00415 -0.01871,-0.00162 -0.01779,-0.01222 -0.00423,-0.01198 0.01,0.00019 0.02264,0.00631 0.02864,0.00949 -0.0039,-0.02544 -0.02331,-0.04174 -0.03887,-0.04236 -0.02616,-0.00106 -0.01675,0.03149 -0.01675,0.03149 0,0 -0.01772,-0.01247 -0.03444,-0.01214 -0.0167,0.00036 -0.02731,0.02803 -0.00942,0.05292z"/>
  <path class="fil4" d="M0.3068 1.06712c0.00065,-0.00175 0.00123,-0.00353 0.00178,-0.00533 -0.0005,0.00181 -0.00096,0.00363 -0.00129,0.00546 -0.00007,0.00036 -0.00062,0.00022 -0.00049,-0.00013z"/>
  <path class="fil4" d="M0.31371 1.04446c0.00122,-0.00361 0.0026,-0.00718 0.004,-0.01073 0.00075,-0.00189 0.00153,-0.00377 0.00236,-0.00563 0.0007,-0.00157 0.00128,-0.00335 0.00233,-0.00472 -0.0008,-0.0015 -0.00155,-0.00302 -0.00212,-0.00457l0.00024 -0.00014c0.002,0.00233 0.00354,0.00527 0.0051,0.00791 0.00073,0.00123 0.00142,0.00249 0.00213,0.00373 0.00147,0.00009 0.00296,0.00042 0.0044,0.00068 0.00157,0.00029 0.00313,0.00061 0.00469,0.00096 0.00155,0.00035 0.00311,0.00071 0.00466,0.00108 0.00154,0.00037 0.00307,0.00088 0.00464,0.00112 0.00036,0.00005 0.00021,0.00063 -0.00014,0.00049 -0.00154,-0.00063 -0.00326,-0.00093 -0.00489,-0.00128 -0.0015,-0.00032 -0.00301,-0.00059 -0.00453,-0.00081 -0.00152,-0.00021 -0.00304,-0.0004 -0.00457,-0.00055 -0.00114,-0.00012 -0.0023,-0.00018 -0.00346,-0.00029 0.00062,0.0011 0.00127,0.00219 0.00188,0.00329l0.00028 0.00053c0.00126,-0.0001 0.00252,0.00022 0.00375,0.00045 0.00136,0.00024 0.0027,0.00049 0.00404,0.00079 0.00274,0.0006 0.00545,0.00125 0.00814,0.002 0.00566,0.00158 0.01126,0.00339 0.01684,0.00521 0.00031,0.0001 0.00011,0.00058 -0.0002,0.00047 -0.00554,-0.00189 -0.0112,-0.0034 -0.01691,-0.00469 -0.00267,-0.0006 -0.00534,-0.00122 -0.00803,-0.00177 -0.00135,-0.00028 -0.00269,-0.00058 -0.00403,-0.00086 -0.00104,-0.00022 -0.00213,-0.00035 -0.00313,-0.00069 0.00288,0.00531 0.00559,0.01072 0.00808,0.01623 0.00543,0.012 0.00999,0.02437 0.01465,0.03668 0.00011,0.00031 -0.00036,0.00051 -0.00047,0.0002 -0.00435,-0.01231 -0.00984,-0.02415 -0.01558,-0.03586 -0.00105,-0.00213 -0.00212,-0.00425 -0.00318,-0.00637 -0.00009,0.00043 -0.0002,0.00086 -0.00028,0.0013 -0.00027,0.00145 -0.00053,0.00291 -0.00077,0.00437 -0.00049,0.00292 -0.00099,0.00583 -0.00142,0.00876 -0.00088,0.00592 -0.00231,0.01217 -0.00211,0.01818 0.00001,0.00038 -0.00056,0.00036 -0.0005,0 0.00046,-0.0029 0.00046,-0.00593 0.00065,-0.00886 0.00019,-0.00306 0.00041,-0.00611 0.00077,-0.00916 0.00034,-0.00294 0.00071,-0.00588 0.0012,-0.00879 0.00024,-0.00146 0.0005,-0.00292 0.00077,-0.00437 0.00019,-0.00106 0.00024,-0.00226 0.00082,-0.00317 -0.00153,-0.00307 -0.00305,-0.00615 -0.0046,-0.00922 -0.00146,-0.00287 -0.00293,-0.00574 -0.00442,-0.0086 -0.00063,-0.0012 -0.00132,-0.00242 -0.00199,-0.00365 -0.00038,0.00151 -0.00115,0.00297 -0.00173,0.0044 -0.00067,0.00166 -0.00135,0.00331 -0.00203,0.00495 -0.00149,0.00365 -0.00289,0.00734 -0.00428,0.01103 -0.00198,0.00523 -0.00417,0.01059 -0.0058,0.01604 0.0016,-0.00535 0.00295,-0.01079 0.00475,-0.01607z"/>
  <path class="fil4" d="M0.30858 1.06179c0.00012,-0.00042 0.00026,-0.00084 0.00038,-0.00126 -0.00012,0.00042 -0.00025,0.00084 -0.00038,0.00126z"/>
  <polygon class="fil6" points="0.20811,1.09988 0.20957,1.13882 0.21334,1.23918 0.2957,1.23918 0.29946,1.13882 0.30093,1.09988 "/>
  <polygon class="fil4" points="0.20811,1.09988 0.20957,1.13882 0.29946,1.13882 0.30093,1.09988 "/>
  <polygon class="fil6" points="0.20225,1.11562 0.30678,1.11562 0.30678,1.08414 0.20225,1.08414 "/>
  <polygon class="fil6" points="0.27457,1.23918 0.27457,1.25566 0.28903,1.25566 0.28903,1.23918 "/>
  <polygon class="fil4" points="0.28903,1.23918 0.27457,1.23918 0.27457,1.24742 0.28903,1.24742 "/>
  <polygon class="fil6" points="0.22,1.23918 0.22,1.25566 0.23445,1.25566 0.23445,1.23918 "/>
  <polygon class="fil4" points="0.22,1.23918 0.22,1.24742 0.23445,1.24742 0.23445,1.23918 "/>
  <polygon class="fil0" points="0.6861,0.87404 0.69354,0.92759 0.74395,1.25428 0.75207,1.25428 0.71542,0.92759 0.71,0.87404 "/>
  <polygon class="fil7" points="0.71,0.87404 0.6861,0.87404 0.69354,0.92759 0.71542,0.92759 "/>
  <polygon class="fil0" points="0.52781,1.25428 0.53594,1.25428 0.58634,0.92759 0.59379,0.87404 0.56989,0.87404 0.56447,0.92759 "/>
  <polygon class="fil7" points="0.56989,0.87404 0.56447,0.92759 0.58634,0.92759 0.59379,0.87404 "/>
  <polygon class="fil0" points="0.37663,1.25428 0.38476,1.25428 0.43516,0.92759 0.4426,0.87404 0.4187,0.87404 0.41328,0.92759 "/>
  <polygon class="fil7" points="0.41328,0.92759 0.43516,0.92759 0.4426,0.87404 0.4187,0.87404 "/>
  <polygon class="fil0" points="0.38952,0.89501 0.75886,0.89501 0.75886,0.85609 0.6206,0.85609 0.57413,0.58573 0.4036,0.58573 "/>
  <polygon class="fil7" points="0.38952,0.89501 0.40965,0.89501 0.42277,0.58573 0.4036,0.58573 "/>
  <path class="fil8" d="M0.75372 1.24223c-0.0074,0.00084 -0.21002,-0.04363 -0.21649,-0.05006 -0.00079,-0.00071 0.00284,-0.01912 0.00823,-0.04423l0.0001 -0.00049c0.00336,-0.01592 0.05985,-0.1452 0.05985,-0.1452l0.13142 0.03414 -0.05729 0.12003c0,0 0.02493,0.01733 0.04633,0.03382l0.00005 0.00007c0.01321,0.01013 0.02461,0.01924 0.02705,0.02221 0.00631,0.00776 0.00813,0.02893 0.00075,0.02971z"/>
  <path class="fil1" d="M0.75371 1.24222c-0.00738,0.00084 -0.21,-0.04363 -0.21649,-0.05005 -0.00079,-0.00072 0.00286,-0.01911 0.00824,-0.04423l0.00011 -0.00048c0.00123,-0.00593 0.0099,-0.02765 0.02023,-0.05253 0.02163,0.0054 0.09915,0.02487 0.12732,0.03304l-0.01357 0.02845c0,0 0.02493,0.01734 0.04633,0.03383l0.00003 0.00005c0.01322,0.01013 0.02464,0.01925 0.02706,0.02221 0.00632,0.00779 0.00815,0.02896 0.00074,0.02971z"/>
  <path class="fil7" d="M0.7544 1.24318c-0.00761,0.0008 -0.21038,-0.04422 -0.21703,-0.05083 -0.00254,-0.00249 0.00136,-0.03443 0.01182,-0.06838l0.13069 0.02918c0,0 0.06739,0.05143 0.07391,0.05945 0.00647,0.00802 0.00822,0.02978 0.00061,0.03058z"/>
  <path class="fil5" d="M0.53737 1.19236c0.00444,0.00441 0.09666,0.026 0.15949,0.03958 0.03109,0.00674 0.05502,0.01152 0.05752,0.01125 0.00763,-0.00082 0.00588,-0.02259 -0.00057,-0.0306 -0.00247,-0.00302 -0.01353,-0.01219 -0.0264,-0.02247 -0.02131,-0.01699 -0.04753,-0.03699 -0.04753,-0.03699l-0.13071 -0.02916c-0.01042,0.03395 -0.01434,0.0659 -0.0118,0.06839z"/>
  <path class="fil9" d="M0.75413 1.2432c-0.00059,0 -0.00172,-0.00013 -0.00334,-0.00038 -0.00215,-0.00032 -0.00514,-0.00085 -0.00885,-0.00155 -0.01042,-0.00196 -0.02647,-0.00529 -0.04508,-0.00933l0.03055 -0.04182c0.01287,0.01028 0.02393,0.01945 0.0264,0.02247 0.00349,0.00433 0.0056,0.01269 0.0056,0.01959 0,0.00584 -0.00153,0.01063 -0.00503,0.01101 -0.00007,0 -0.00015,0.00001 -0.00025,0.00001z"/>
  <path class="fil4" d="M0.75329 1.23442c-0.03381,-0.00838 -0.17094,-0.03899 -0.205,-0.04471 -0.00027,-0.00004 -0.00031,0.00014 -0.00004,0.00021 0.03332,0.00904 0.1707,0.03854 0.20492,0.04506 0.00072,0.00014 0.00083,-0.00038 0.00012,-0.00056z"/>
  <path class="fil4" d="M0.74237 1.20241c-0.00799,-0.00212 -0.01672,-0.00004 -0.02218,0.00379 -0.00525,0.00367 -0.0103,0.00935 -0.01163,0.01646l0.00041 0.00009c0.0049,-0.01287 0.01959,-0.02187 0.0333,-0.01991 0.00028,0.00004 0.00037,-0.00036 0.0001,-0.00043z"/>
  <path class="fil4" d="M0.68978 1.15892c-0.01356,-0.00321 -0.0304,-0.00191 -0.04132,0.00734 -0.00042,0.00036 0.00009,0.00096 0.00054,0.00084 0.01371,-0.00361 0.02645,-0.00574 0.04065,-0.00645 0.001,-0.00005 0.00111,-0.0015 0.00013,-0.00173z"/>
  <path class="fil4" d="M0.69938 1.16535c-0.01356,-0.00321 -0.0304,-0.00191 -0.04133,0.00734 -0.00042,0.00036 0.00009,0.00095 0.00054,0.00083 0.01371,-0.0036 0.02645,-0.00573 0.04065,-0.00645 0.001,-0.00005 0.00111,-0.00149 0.00014,-0.00172z"/>
  <path class="fil4" d="M0.70897 1.17177c-0.01356,-0.00321 -0.0304,-0.0019 -0.04133,0.00734 -0.00042,0.00036 0.0001,0.00096 0.00055,0.00084 0.0137,-0.00361 0.02644,-0.00574 0.04064,-0.00645 0.001,-0.00005 0.00111,-0.0015 0.00014,-0.00173z"/>
  <path class="fil4" d="M0.71856 1.1782c-0.01356,-0.00321 -0.0304,-0.00191 -0.04132,0.00734 -0.00042,0.00036 0.00009,0.00096 0.00054,0.00084 0.01371,-0.00361 0.02645,-0.00574 0.04065,-0.00645 0.001,-0.00005 0.00111,-0.0015 0.00013,-0.00173z"/>
  <path class="fil4" d="M0.68359 1.15942l-0.13953 -0.0347c0,0 0.12477,-0.27397 0.11467,-0.28772 -0.00505,-0.00687 -0.13529,-0.01043 -0.17631,-0.04607 -0.05327,-0.0463 -0.01633,-0.11564 -0.01633,-0.11564l0.14553 -0.00259c0,0 -0.00211,0.03041 0.00351,0.03507 0.0037,0.0031 0.17688,0.01975 0.19522,0.07848 0.02249,0.07201 -0.12676,0.37317 -0.12676,0.37317z"/>
  <path class="fil6" d="M0.6897 1.12991c-0.00364,-0.00178 -0.00764,-0.00285 -0.01147,-0.0041 -0.00406,-0.00132 -0.00811,-0.00266 -0.01219,-0.00391 -0.00803,-0.00247 -0.01608,-0.00483 -0.02419,-0.00702 -0.01633,-0.00439 -0.03268,-0.00869 -0.04911,-0.01265 -0.00858,-0.00206 -0.02693,-0.00657 -0.02807,-0.00638 -0.00054,0.00009 -0.00065,0.001 -0.00016,0.00117 0.0159,0.00547 0.03204,0.01012 0.04818,0.01482 0.01611,0.00469 0.03225,0.00933 0.04857,0.01323 0.00452,0.00108 0.00907,0.00203 0.0136,0.00306 0.00475,0.00107 0.00955,0.00252 0.01444,0.0029 0.00047,0.00004 0.00092,-0.00086 0.0004,-0.00112z"/>
  <path class="fil6" d="M0.68376 0.82524c-0.00289,-0.00254 -0.00728,-0.0029 -0.01094,-0.00355 -0.02096,-0.00377 -0.04191,-0.00757 -0.06287,-0.01133 -0.01962,-0.00352 -0.03933,-0.0067 -0.05885,-0.01071 -0.01616,-0.00332 -0.03258,-0.00774 -0.04648,-0.01669 -0.01393,-0.00897 -0.02346,-0.02231 -0.02817,-0.03781 -0.0047,-0.0155 -0.00486,-0.0321 -0.00313,-0.04806 0.00043,-0.00391 0.00119,-0.0078 0.00197,-0.01165 0.00005,-0.0003 -0.00041,-0.0004 -0.00047,-0.00011 -0.00568,0.02977 -0.00657,0.0644 0.01549,0.08844 0.01076,0.01173 0.02564,0.01871 0.04086,0.02331 0.01717,0.00518 0.03514,0.00775 0.05278,0.01092 0.02096,0.00377 0.04192,0.00753 0.06289,0.01128 0.01008,0.0018 0.02033,0.00324 0.03033,0.00545 0.00191,0.00043 0.00408,0.00102 0.00544,0.00249 0.00188,0.00203 0.00133,0.00488 0.0008,0.0073 -0.00107,0.00494 -0.00246,0.00982 -0.00394,0.01466 -0.01194,0.03903 -0.09721,0.22442 -0.09954,0.22869 -0.00024,0.00045 0.00047,0.00081 0.00072,0.00037 0.01968,-0.03413 0.08315,-0.17721 0.09631,-0.21411 0.00336,-0.00943 0.00648,-0.01897 0.0086,-0.02874 0.00077,-0.00352 0.00124,-0.00749 -0.0018,-0.01015z"/>
  <path class="fil8" d="M0.96172 1.25353c-0.00708,0.0023 -0.21449,-0.00094 -0.22212,-0.00595 -0.00091,-0.00054 -0.00102,-0.01931 -0.00074,-0.04498l0 -0.00051c0.00012,-0.01627 -0.00321,-0.15533 -0.00321,-0.15533l0.12983 0.00047 0.00646 0.13698c0,0 0.02788,0.01202 0.05214,0.02392l0.00006 0.00006c0.01497,0.0073 0.02795,0.01395 0.03094,0.01638 0.00773,0.00635 0.01372,0.02673 0.00664,0.02896z"/>
  <path class="fil1" d="M0.96173 1.25353c-0.00709,0.00229 -0.2145,-0.00093 -0.22214,-0.00596 -0.00091,-0.00052 -0.00101,-0.0193 -0.00074,-0.04496l0.00001 -0.00051c0,-0.00113 0.00001,-0.00229 -0.00001,-0.00345 0.00002,-0.00083 0.00001,-0.00166 -0.00003,-0.00249 0,-0.00122 -0.00002,-0.00247 -0.00005,-0.00371 -0.00015,-0.01081 -0.00048,-0.02837 -0.00089,-0.0476l0.13225 0.00072 0.00182 0.03864c0,0 0.02787,0.01202 0.05214,0.02392l0.00006 0.00006c0.01496,0.0073 0.02795,0.01395 0.03092,0.01637 0.00772,0.00636 0.01375,0.02674 0.00666,0.02897z"/>
  <path class="fil5" d="M0.96258 1.25433c-0.0073,0.00229 -0.21497,-0.00145 -0.22281,-0.0066 -0.00297,-0.00193 -0.00551,-0.03401 -0.00203,-0.06937l0.13388 0.00258c0,0 0.07629,0.03697 0.08427,0.04354 0.00794,0.00657 0.01398,0.02755 0.00669,0.02985z"/>
  <path class="fil4" d="M0.95975 1.24597c-0.0348,-0.00149 -0.17529,-0.00418 -0.2098,-0.003 -0.00028,0.00001 -0.00028,0.0002 0,0.00022 0.03446,0.00222 0.17496,0.00378 0.20979,0.00335 0.00073,-0.00001 0.00074,-0.00054 0.00001,-0.00057z"/>
  <path class="fil4" d="M0.94267 1.21677c-0.00825,-0.00048 -0.01639,0.00329 -0.02098,0.00813 -0.00441,0.00464 -0.00823,0.01122 -0.00811,0.01844l0.00042 0.00001c0.00223,-0.01359 0.01484,-0.02533 0.02866,-0.02614 0.00028,-0.00002 0.00029,-0.00042 0.00001,-0.00044z"/>
  <path class="fil4" d="M0.88248 1.18462c-0.01393,-0.00044 -0.03017,0.00419 -0.03904,0.01543 -0.00034,0.00043 0.00029,0.00091 0.0007,0.00071 0.01272,-0.00627 0.02478,-0.01089 0.03855,-0.01442 0.00097,-0.00025 0.00079,-0.00168 -0.00021,-0.00172z"/>
  <path class="fil4" d="M0.89316 1.18901c-0.01393,-0.00044 -0.03017,0.00418 -0.03903,0.01542 -0.00035,0.00044 0.00028,0.00092 0.00069,0.00071 0.01272,-0.00626 0.02478,-0.01088 0.03855,-0.01441 0.00097,-0.00025 0.00079,-0.00169 -0.00021,-0.00172z"/>
  <path class="fil4" d="M0.90384 1.1934c-0.01393,-0.00045 -0.03017,0.00418 -0.03903,0.01542 -0.00035,0.00044 0.00028,0.00092 0.00069,0.00071 0.01272,-0.00627 0.02478,-0.01089 0.03855,-0.01441 0.00097,-0.00025 0.00079,-0.00169 -0.00021,-0.00172z"/>
  <path class="fil4" d="M0.91452 1.19779c-0.01393,-0.00045 -0.03017,0.00418 -0.03903,0.01542 -0.00035,0.00043 0.00028,0.00091 0.00069,0.00071 0.01272,-0.00627 0.02478,-0.01089 0.03855,-0.01441 0.00098,-0.00025 0.00079,-0.00169 -0.00021,-0.00172z"/>
  <path class="fil4" d="M0.87825 1.18085l-0.14281 -0.00013c0,0 0.00237,-0.26733 -0.00893,-0.28215 -0.01507,-0.01974 -0.22914,-0.02185 -0.27429,-0.0862 -0.04056,-0.0578 -0.00478,-0.13848 -0.00478,-0.13848l0.16217 -0.00289c0,0 -0.00537,0.02568 -0.01564,0.05088 0,0 0.19486,0.03837 0.24885,0.09892 0.03644,0.04087 0.03543,0.36005 0.03543,0.36005z"/>
  <path class="fil6" d="M0.62262 0.71111c-0.0047,0.00077 -0.00934,0.0026 -0.01379,0.00424 -0.00468,0.00172 -0.00929,0.00368 -0.01379,0.00581 -0.00892,0.00421 -0.01742,0.00906 -0.02582,0.0142 -0.00026,0.00016 -0.00001,0.00052 0.00025,0.00039 0.00882,-0.00445 0.01793,-0.00844 0.02705,-0.01225 0.00439,-0.00182 0.00878,-0.00365 0.01317,-0.00548 0.00441,-0.00184 0.00911,-0.0034 0.01331,-0.0057 0.00055,-0.0003 0.00026,-0.00132 -0.00038,-0.00121z"/>
  <path class="fil6" d="M0.61338 0.67098c-0.00195,0.00737 -0.00366,0.01481 -0.00587,0.02212 -0.00101,0.00335 -0.00201,0.00676 -0.00332,0.01001 -0.0011,0.00274 -0.00277,0.00587 -0.00596,0.00645 -0.00369,0.00067 -0.0047,-0.00249 -0.00437,-0.00552 0.00038,-0.00339 0.00129,-0.00677 0.00199,-0.0101 0.00082,-0.00383 0.00165,-0.00766 0.00239,-0.01151 0.00037,-0.00192 0.00076,-0.00385 0.00111,-0.00577 0.00009,-0.00049 0.00049,-0.00418 0.00077,-0.00523l0.0002 0.00016 0.00013 -0.00002 0.00022 -0.00019c0.00005,-0.00029 0.00004,-0.00035 -0.00017,-0.00055l-0.00034 -0.00003c-0.00071,0.00037 -0.00077,0.00134 -0.001,0.00204 -0.00062,0.00187 -0.00126,0.00373 -0.00182,0.00561 -0.00107,0.00352 -0.00211,0.00705 -0.00305,0.01061 -0.00094,0.00355 -0.00186,0.00711 -0.00278,0.01067 -0.00068,0.00266 -0.0015,0.00546 -0.00081,0.00821 0.00075,0.003 0.00313,0.00454 0.00576,0.0048 -0.00013,0.00024 -0.00029,0.00047 -0.0004,0.00072 -0.00034,0.00072 -0.00058,0.0015 -0.00086,0.00224 -0.0003,0.00076 -0.00056,0.00152 -0.00079,0.00231 -0.00011,0.00037 -0.00018,0.00076 -0.00023,0.00114 -0.00005,0.00043 0.00003,0.00085 -0.00003,0.00127 -0.00009,0.00067 0.00081,0.00108 0.00115,0.00043 0.00019,-0.00038 0.00048,-0.00066 0.0007,-0.00103 0.00023,-0.00037 0.0004,-0.00082 0.00054,-0.00123 0.00026,-0.00074 0.00049,-0.00147 0.00068,-0.00223 0.0002,-0.00074 0.00044,-0.00149 0.00059,-0.00225 0.00009,-0.00045 0.00011,-0.00091 0.00015,-0.00136 0.00151,-0.00014 0.00301,-0.00063 0.00429,-0.00157 0.00222,-0.00165 0.00355,-0.00418 0.0045,-0.00671 0.00115,-0.00307 0.00206,-0.00625 0.00296,-0.0094 0.00223,-0.00779 0.00416,-0.01571 0.005,-0.02378 0.00009,-0.00086 -0.0011,-0.00119 -0.00133,-0.00031z"/>
  <path class="fil6" d="M0.51675 0.68794c-0.00071,0.00366 -0.00118,0.00737 -0.00207,0.011 -0.00087,0.00355 -0.00188,0.0071 -0.0031,0.01055 -0.00116,0.0033 -0.00258,0.00663 -0.00462,0.00949 -0.00198,0.00277 -0.00459,0.00515 -0.00727,0.00723 -0.00527,0.00407 -0.0112,0.0073 -0.01749,0.00947 -0.00317,0.0011 -0.00641,0.00202 -0.0097,0.00271 -0.00171,0.00037 -0.00343,0.00064 -0.00517,0.00084 -0.00144,0.00017 -0.00287,0.00021 -0.00417,0.00092 -0.00055,0.0003 -0.00047,0.00117 0.00006,0.00144 0.0022,0.00111 0.00532,0.00055 0.00769,0.00034 0.00277,-0.00026 0.00552,-0.00069 0.00823,-0.00135 0.00545,-0.00133 0.01074,-0.00355 0.0156,-0.00636 0.00476,-0.00275 0.00956,-0.00621 0.0131,-0.01046 0.00367,-0.0044 0.00575,-0.0096 0.00711,-0.01513 0.00164,-0.00661 0.00279,-0.0138 0.00251,-0.02063 -0.00002,-0.00039 -0.00063,-0.00047 -0.00071,-0.00006z"/>
  <path class="fil6" d="M0.75606 0.99461c-0.00117,-0.02303 -0.00281,-0.04604 -0.00492,-0.06901 -0.00052,-0.00566 -0.00102,-0.01133 -0.00165,-0.01699 -0.00049,-0.00436 -0.00114,-0.0088 -0.00269,-0.01293 -0.00327,-0.00867 -0.0104,-0.01311 -0.01905,-0.0154 -0.01021,-0.00272 -0.02079,-0.00439 -0.03119,-0.0062 -0.01063,-0.00186 -0.02129,-0.00353 -0.03196,-0.00515 -0.02161,-0.00327 -0.04326,-0.00631 -0.06477,-0.0102 -0.02141,-0.00387 -0.04273,-0.00856 -0.06349,-0.0151 -0.01908,-0.00601 -0.03864,-0.01339 -0.05381,-0.02686 -0.03265,-0.02899 -0.03328,-0.07694 -0.02877,-0.11699 0.00064,-0.00566 0.0014,-0.0113 0.00215,-0.01694 0.00004,-0.00029 -0.00042,-0.0004 -0.00046,-0.0001 -0.00288,0.02255 -0.00618,0.04523 -0.00421,0.06801 0.00161,0.01861 0.00683,0.03735 0.01741,0.05292 0.01097,0.01616 0.0274,0.02672 0.04517,0.03414 0.01942,0.00812 0.03999,0.01367 0.06051,0.01823 0.04268,0.00947 0.08628,0.01378 0.12925,0.02167 0.0053,0.00097 0.01059,0.002 0.01586,0.00309 0.00483,0.00101 0.00979,0.00194 0.0143,0.00401 0.00972,0.0045 0.0123,0.01405 0.01339,0.0239 0.00254,0.02287 0.00418,0.04588 0.00556,0.06885 0.00277,0.04629 0.00399,0.09282 0.00335,0.13919 -0.00008,0.00573 -0.00018,0.01145 -0.00031,0.01718 -0.00001,0.00051 0.00077,0.00046 0.00079,-0.00004 0.00195,-0.04643 0.00189,-0.09286 -0.00046,-0.13928z"/>
  <path class="fil6" d="M0.87295 1.15768c-0.00397,-0.00084 -0.00811,-0.0009 -0.01213,-0.00117 -0.00426,-0.00029 -0.00852,-0.00059 -0.01278,-0.00081 -0.00839,-0.00043 -0.01677,-0.00075 -0.02517,-0.00088 -0.0169,-0.00026 -0.03381,-0.00044 -0.05072,-0.00025 -0.00881,0.0001 -0.02771,0.00022 -0.02877,0.00068 -0.0005,0.00023 -0.00038,0.00114 0.00013,0.00118 0.01676,0.00141 0.03355,0.00197 0.05034,0.00258 0.01677,0.0006 0.03356,0.00114 0.05034,0.00093 0.00465,-0.00006 0.00929,-0.00025 0.01393,-0.00036 0.00487,-0.00013 0.00988,0.00011 0.01471,-0.00072 0.00047,-0.00008 0.00068,-0.00107 0.00012,-0.00118z"/>
  <path class="fil6" d="M0.73565 1.04676c0.00051,-0.01911 0.00047,-0.03822 0.00019,-0.05734 -0.0003,-0.01911 -0.00105,-0.03822 -0.00229,-0.05733 -0.00084,-0.00955 -0.00155,-0.01907 -0.00366,-0.02864 -0.00028,-0.00119 -0.00061,-0.0024 -0.0011,-0.00363 -0.00015,-0.00058 -0.00064,-0.00129 -0.00101,-0.00192 -0.00042,-0.00059 -0.00099,-0.00108 -0.0015,-0.00152 -0.00216,-0.00162 -0.00442,-0.00261 -0.0067,-0.0035 -0.00457,-0.00178 -0.00923,-0.003 -0.01391,-0.0041 -0.01873,-0.00427 -0.03771,-0.00679 -0.05674,-0.00857 0.00943,0.00154 0.01885,0.00308 0.02822,0.00492 0.00937,0.00175 0.01873,0.00364 0.02791,0.00608 0.00458,0.00125 0.00914,0.00257 0.01348,0.00428 0.00215,0.00086 0.00428,0.00187 0.00593,0.00314 0.00083,0.00067 0.00125,0.00129 0.00161,0.00228 0.00038,0.001 0.00068,0.0021 0.00093,0.00323 0.00192,0.00912 0.00256,0.01873 0.0033,0.0282 0.00151,0.019 0.0022,0.03808 0.00304,0.05715l0.0023 0.05727z"/>
  <path class="fil6" d="M0.81253 0.79657c-0.01614,-0.01054 -0.03358,-0.01896 -0.05126,-0.02661 -0.01771,-0.00763 -0.03586,-0.01418 -0.05412,-0.02033 -0.01834,-0.00594 -0.03685,-0.01134 -0.0555,-0.01611 -0.01864,-0.00486 -0.03746,-0.00898 -0.05635,-0.01267 0.00927,0.00259 0.01863,0.0048 0.02789,0.00743 0.00929,0.00246 0.01857,0.00496 0.02781,0.00765 0.01848,0.00527 0.03694,0.01063 0.05513,0.01678 0.01829,0.00588 0.03634,0.01244 0.05418,0.01954 0.00893,0.00354 0.01777,0.00731 0.02647,0.01136 0.00877,0.00392 0.01735,0.00826 0.02575,0.01296z"/>
  <path class="fil8" d="M0.56854 0.50047c0.02355,0.05522 0.06338,0.12335 0.0867,0.13436 0.01881,0.00888 0.11008,0.01411 0.11506,0.01376 0.0123,-0.00094 0.02092,-0.09216 0.00773,-0.0918 -0.01742,0.00047 -0.092,0.00956 -0.09705,0.00594 -0.00525,-0.00379 -0.03917,-0.03587 -0.07775,-0.07315 -0.02662,-0.02577 -0.04929,-0.02338 -0.03469,0.01089z"/>
  <path class="fil8" d="M0.75976 0.64564c0.00157,0.00047 0.02385,0.00709 0.03714,0.00849 0.00992,0.00104 0.03855,0.00328 0.04078,-0.00752 0.00154,-0.00737 -0.01515,-0.01067 -0.02689,-0.01326 -0.00618,-0.00137 -0.01436,-0.00613 -0.01333,-0.01013 0.00181,-0.007 0.0178,-0.00316 0.02856,0.00076 0.02081,0.00757 0.04944,0.02279 0.05924,0.01116 0.0037,-0.00439 -0.00253,-0.01007 -0.01108,-0.0152 0.01335,0.00538 0.02725,0.00926 0.03155,0.00454 0.00247,-0.0027 0.00207,-0.00571 -0.00014,-0.00883 0.00392,0.00054 0.00715,-0.00029 0.009,-0.00311 0.00317,-0.00478 0.00019,-0.01046 -0.00518,-0.01587 0.00134,-0.00039 0.00245,-0.0013 0.00313,-0.00296 0.006,-0.01407 -0.0418,-0.04281 -0.0567,-0.04364 -0.04384,-0.00246 -0.08792,0.0092 -0.08792,0.0092 -0.01415,0.01615 -0.0082,0.08635 -0.00816,0.08637z"/>
  <path class="fil4" d="M0.81466 0.59585c0.01018,-0.00022 0.02059,0.00174 0.02998,0.00578 0.01192,0.00512 0.02047,0.01209 0.0309,0.01878 0.00027,0.00018 0,0.00061 -0.00027,0.00044 -0.00497,-0.00318 -0.02528,-0.01484 -0.03045,-0.01739 -0.00947,-0.00468 -0.01958,-0.00734 -0.03017,-0.00743l0.00001 -0.00018z"/>
  <path class="fil4" d="M0.8193 0.57661c0.01159,0.00104 0.02346,0.00207 0.03466,0.00546 0.01225,0.00371 0.0227,0.01146 0.03295,0.01889 0.00615,0.00446 0.01221,0.00905 0.01815,0.01378 0.00025,0.0002 0,0.00063 -0.00026,0.00044 -0.01043,-0.0077 -0.02108,-0.01511 -0.03196,-0.02216 -0.01023,-0.00663 -0.02113,-0.01116 -0.03312,-0.01342 -0.00676,-0.00128 -0.0136,-0.00204 -0.02043,-0.00279l0.00001 -0.0002z"/>
  <path class="fil4" d="M0.82831 0.55889c0.01113,0.00028 0.02084,0.00049 0.03138,0.00454 0.01395,0.00536 0.0284,0.01602 0.03348,0.01981 0.00561,0.00418 0.01107,0.00855 0.01647,0.013l-0.00032 0.00039c-0.01224,-0.00965 -0.02517,-0.01859 -0.03856,-0.02658 -0.0064,-0.00381 -0.01317,-0.00692 -0.02045,-0.00862 -0.0072,-0.00169 -0.01465,-0.00203 -0.022,-0.00246l0 -0.00008z"/>
  <path class="fil5" d="M0.77239 0.55464l-0.01477 0.09871c0,0 -0.09677,-0.00856 -0.11206,-0.02199 -0.01528,-0.01344 -0.0617,-0.08694 -0.07685,-0.12827 -0.01515,-0.04133 0.00798,-0.03679 0.03048,-0.01888 0.02251,0.01791 0.08138,0.0756 0.08314,0.07632 0.00177,0.00072 0.09006,-0.00589 0.09006,-0.00589z"/>
  <path class="fil4" d="M0.73935 0.63441c0.00061,-0.00332 0.00132,-0.00663 0.00185,-0.00996 0.0011,-0.00693 0.0022,-0.01386 0.00328,-0.0208 0.00109,-0.00694 0.00214,-0.01389 0.00314,-0.02084 0.00101,-0.00696 0.00174,-0.01399 0.00284,-0.02092 0.00005,-0.00032 -0.00042,-0.00042 -0.00048,-0.0001 -0.00141,0.00687 -0.00312,0.01368 -0.00446,0.02058 -0.00137,0.00701 -0.0026,0.01406 -0.0037,0.02112 -0.00108,0.00695 -0.00206,0.0139 -0.00295,0.02087 -0.00045,0.0035 -0.00066,0.00702 -0.001,0.01053 -0.00034,0.0034 -0.00077,0.00679 -0.00087,0.01021l0.0004 0.00003c0.00084,-0.00354 0.00131,-0.00715 0.00195,-0.01072z"/>
  <path class="fil10" d="M0.69747 0.64589c-0.00794,-0.00128 -0.01581,-0.00272 -0.02297,-0.00429 0.00716,0.00157 0.01503,0.003 0.02297,0.00428l0 0.00001z"/>
  <path class="fil9" d="M0.69747 0.64588c-0.00794,-0.00128 -0.01581,-0.00271 -0.02297,-0.00428 -0.01353,-0.00297 -0.02456,-0.00641 -0.02893,-0.01026 -0.00627,-0.00551 -0.01778,-0.02111 -0.03022,-0.04046 -0.00328,-0.02981 -0.00665,-0.05567 -0.00807,-0.06379 -0.00074,-0.00419 -0.00182,-0.00847 -0.00312,-0.01268l0.09331 0.11269 0 0.01878z"/>
  <path class="fil5" d="M0.61513 0.70777l-0.18443 0.00906c0,0 -0.00571,-0.00698 -0.00369,-0.01624 0.00961,-0.04419 0.04947,-0.17454 0.11186,-0.22492 0.01329,-0.01073 0.03547,-0.00623 0.04551,0.00023 0.00502,0.00322 0.01891,0.02861 0.0229,0.05119 0.0031,0.0177 0.01544,0.11976 0.01601,0.16308 0.00016,0.01187 -0.00757,0.01701 -0.00816,0.0176z"/>
  <path class="fil9" d="M0.48873 0.69444l0 0 0.00469 -0.01263c0.00013,0 0.00026,0.00001 0.00039,0.00002l-0.00508 0.01261 0.06478 -0.00357c0.02096,-0.00115 0.04178,-0.0023 0.06262,-0.00322l-0.00499 -0.02225c-0.00005,-0.00361 -0.00064,-0.00811 -0.00164,-0.01313 0.00025,0.00011 0.0005,0.00023 0.00075,0.00033l0.00063 0.00027 0.00015 0.00067 0.00767 0.03499 0.00032 0.00146 -0.00139 0.00006c-0.02165,0.00094 -0.0433,0.00164 -0.06482,0.00233l-0.06408 0.00206z"/>
  <polygon class="fil5" points="0.69747,0.71211 0.97366,0.71211 0.97366,0.60466 0.69747,0.60466 "/>
  <path class="fil11" d="M0.87179 0.71211l-0.08149 0 0 -0.10745 0.09054 0 0 0 0.09282 0 0 0.09412 -0.0136 -0.00183 0 -0.01883 -0.00151 0 0 0.01863 -0.00212 -0.00029 0 -0.01834 -0.00151 0 0 0.01814 -0.00212 -0.00029 0 -0.01785 -0.00152 0 0 0.01765 -0.00212 -0.00029 0 -0.01736 -0.00151 0 0 0.01716 -0.00212 -0.00029 0 -0.01687 -0.00151 0 0 0.01667 -0.00212 -0.00029 0 -0.01638 -0.00152 0 0 0.01618 -0.00212 -0.00028 0 -0.0159 -0.00151 0 0 0.01569 -0.00212 -0.00028 0 -0.01541 -0.00151 0 0 0.0152 -0.00212 -0.00028 0 -0.01492 -0.00152 0 0 0.01471 -0.01485 -0.002 0 -0.00085c0.00416,-0.00055 0.00582,-0.00468 0.00582,-0.01186l-0.01367 0c0,0.0072 0.00165,0.01131 0.00582,0.01186l0 0.00058 -0.01148 -0.00154 0.00247 0 -0.00814 -0.0109 -0.00689 0.0092 -0.09826 -0.01322 0 0.038 0.08149 0.00001zm-0.1743 0l-0.00002 0 0 -0.10745 0.00002 0 0 0.10745z"/>
  <polygon class="fil12" points="0.69749,0.71211 0.7903,0.71211 0.7903,0.71211 0.69749,0.71211 "/>
  <polygon class="fil13" points="0.7903,0.71211 0.69749,0.71211 0.69749,0.60466 0.72961,0.60466 0.72961,0.62983 0.7578,0.62983 0.7578,0.60466 0.7903,0.60466 "/>
  <path class="fil5" d="M0.70388 0.70471c0.00688,-0.00764 0.01369,-0.0153 0.02043,-0.02299l0.02014 -0.02312 0.01988 -0.02321c0.00659,-0.00775 0.01312,-0.01553 0.01958,-0.02333 -0.00688,0.00764 -0.01369,0.01531 -0.02044,0.023l-0.02013 0.02311 -0.01988 0.02321c-0.00659,0.00775 -0.01311,0.01553 -0.01958,0.02333z"/>
  <path class="fil5" d="M0.70388 0.61206c0.00647,0.0078 0.01299,0.01558 0.01958,0.02333l0.01988 0.02321 0.02013 0.02312c0.00675,0.00769 0.01356,0.01535 0.02044,0.02299 -0.00646,-0.0078 -0.01299,-0.01558 -0.01958,-0.02333l-0.01988 -0.02321 -0.02014 -0.02311c-0.00674,-0.00769 -0.01355,-0.01536 -0.02043,-0.023z"/>
  <polygon class="fil1" points="0.72961,0.62983 0.7578,0.62983 0.7578,0.60466 0.72961,0.60466 "/>
  <polygon class="fil4" points="0.92948,0.69947 0.931,0.69947 0.931,0.67812 0.92948,0.67812 "/>
  <polygon class="fil4" points="0.93312,0.69947 0.93463,0.69947 0.93463,0.67812 0.93312,0.67812 "/>
  <polygon class="fil4" points="0.93675,0.69947 0.93826,0.69947 0.93826,0.67812 0.93675,0.67812 "/>
  <polygon class="fil4" points="0.94038,0.69947 0.9419,0.69947 0.9419,0.67812 0.94038,0.67812 "/>
  <polygon class="fil4" points="0.94402,0.69947 0.94553,0.69947 0.94553,0.67812 0.94402,0.67812 "/>
  <polygon class="fil4" points="0.94765,0.69947 0.94916,0.69947 0.94916,0.67812 0.94765,0.67812 "/>
  <polygon class="fil4" points="0.95128,0.69947 0.9528,0.69947 0.9528,0.67812 0.95128,0.67812 "/>
  <polygon class="fil4" points="0.95492,0.69947 0.95643,0.69947 0.95643,0.67812 0.95492,0.67812 "/>
  <polygon class="fil4" points="0.95855,0.69947 0.96006,0.69947 0.96006,0.67812 0.95855,0.67812 "/>
  <path class="fil4" d="M0.91463 0.69785l0.00582 0.00162 -0.01367 0 0.00582 -0.00164 0 -0.00785c-0.00417,-0.00055 -0.00582,-0.00466 -0.00582,-0.01186l0.01367 0c0,0.00718 -0.00166,0.01131 -0.00582,0.01186l0 0.00787z"/>
  <polygon class="fil4" points="0.90359,0.68902 0.90002,0.68902 0.90002,0.69947 0.89088,0.69947 0.89088,0.68902 0.88729,0.68902 0.89545,0.67812 "/>
  <polygon class="fil10" points="0.97366,0.71211 0.87179,0.71211 0.97366,0.71211 0.97366,0.69878 "/>
  <polygon class="fil14" points="0.97366,0.71211 0.87179,0.71211 0.7903,0.7121 0.7903,0.6741 0.88856,0.68732 0.88729,0.68902 0.89088,0.68902 0.89088,0.69947 0.90002,0.69947 0.90002,0.68902 0.90112,0.68902 0.9126,0.69056 0.9126,0.69783 0.90678,0.69947 0.92045,0.69947 0.91463,0.69785 0.91463,0.69083 0.92948,0.69283 0.92948,0.69947 0.931,0.69947 0.931,0.69304 0.93312,0.69332 0.93312,0.69947 0.93463,0.69947 0.93463,0.69353 0.93675,0.69381 0.93675,0.69947 0.93826,0.69947 0.93826,0.69402 0.94038,0.6943 0.94038,0.69947 0.9419,0.69947 0.9419,0.6945 0.94402,0.69479 0.94402,0.69947 0.94553,0.69947 0.94553,0.69499 0.94765,0.69528 0.94765,0.69947 0.94916,0.69947 0.94916,0.69548 0.95128,0.69577 0.95128,0.69947 0.9528,0.69947 0.9528,0.69597 0.95492,0.69626 0.95492,0.69947 0.95643,0.69947 0.95643,0.69646 0.95855,0.69675 0.95855,0.69947 0.96006,0.69947 0.96006,0.69695 0.97366,0.69878 "/>
  <polygon class="fil15" points="0.931,0.69947 0.92948,0.69947 0.92948,0.69283 0.931,0.69304 "/>
  <polygon class="fil15" points="0.93463,0.69947 0.93312,0.69947 0.93312,0.69332 0.93463,0.69353 "/>
  <polygon class="fil15" points="0.93826,0.69947 0.93675,0.69947 0.93675,0.69381 0.93826,0.69402 "/>
  <polygon class="fil15" points="0.9419,0.69947 0.94038,0.69947 0.94038,0.6943 0.9419,0.6945 "/>
  <polygon class="fil15" points="0.94553,0.69947 0.94402,0.69947 0.94402,0.69479 0.94553,0.69499 "/>
  <polygon class="fil15" points="0.94916,0.69947 0.94765,0.69947 0.94765,0.69528 0.94916,0.69548 "/>
  <polygon class="fil15" points="0.9528,0.69947 0.95128,0.69947 0.95128,0.69577 0.9528,0.69597 "/>
  <polygon class="fil15" points="0.95643,0.69947 0.95492,0.69947 0.95492,0.69626 0.95643,0.69646 "/>
  <polygon class="fil15" points="0.96006,0.69947 0.95855,0.69947 0.95855,0.69675 0.96006,0.69695 "/>
  <polygon class="fil15" points="0.92045,0.69947 0.90678,0.69947 0.9126,0.69783 0.9126,0.69056 0.91463,0.69083 0.91463,0.69785 "/>
  <polygon class="fil15" points="0.90002,0.69947 0.89088,0.69947 0.89088,0.68902 0.88729,0.68902 0.88856,0.68732 0.90112,0.68902 0.90002,0.68902 "/>
  <polygon class="fil5" points="0.66992,0.57779 0.76274,0.57779 0.7903,0.60466 0.69747,0.60466 "/>
  <polygon class="fil14" points="0.7903,0.60466 0.69747,0.60466 0.66992,0.57779 0.76274,0.57779 "/>
  <polygon class="fil5" points="1.00122,0.57779 0.90839,0.57779 0.88084,0.60466 0.97366,0.60466 "/>
  <polygon class="fil14" points="0.97366,0.60466 0.88084,0.60466 0.90839,0.57779 1.00122,0.57779 "/>
  <path class="fil8" d="M0.5261 0.48383c-0.04083,0.02797 -0.15055,0.1418 -0.13056,0.1719 0.02013,0.03031 0.16842,0.02863 0.21226,0.01857 0.01305,-0.00298 -0.01539,-0.08648 -0.02886,-0.09128 -0.00565,-0.00201 -0.02491,0.00049 -0.04278,0.003 -0.01764,0.00247 -0.03392,0.00495 -0.03439,0.00307 -0.00107,-0.00426 0.01781,-0.02589 0.04341,-0.07398 0.02952,-0.05544 -0.00104,-0.04364 -0.01908,-0.03128z"/>
  <path class="fil8" d="M0.6428 0.57234c0.02955,0.00239 0.03676,0.00754 0.06277,-0.00368 0.01707,-0.00737 0.02909,0.00037 0.01695,0.0154 -0.01988,0.0246 -0.05864,0.02952 -0.07258,0.02736l-0.00714 -0.03908z"/>
  <path class="fil8" d="M0.56054 0.58297c0,0 0.03618,-0.0107 0.06792,-0.01127 0.02194,-0.00039 0.06979,0.00408 0.10408,0.0599 0.00814,0.01325 0.01034,0.03788 -0.0108,0.02108 -0.01502,-0.01193 -0.02093,-0.02404 -0.03093,-0.02939 0,0 -0.00092,0.03167 -0.01451,0.0393 -0.00607,0.00341 -0.02286,0.01234 -0.03692,0.01742 0,0 -0.00193,-0.00277 -0.00387,-0.00662 0,0 -0.01337,0.00593 -0.0345,-0.00094l-0.04047 -0.08948z"/>
  <path class="fil8" d="M0.64946 0.57467c0.0088,0.00741 0.02719,0.02343 0.03768,0.04176 0.01165,0.02037 0.0286,0.06274 0.01348,0.07118 -0.01109,0.00619 -0.01899,-0.00941 -0.01899,-0.00941 0,0 0.00332,0.01899 -0.00792,0.02239 -0.01025,0.0031 -0.01563,-0.00934 -0.01563,-0.00934 0,0 0.00003,0.01186 -0.01041,0.01295 -0.01256,0.0013 -0.01056,-0.02378 -0.02442,-0.03345 -0.00312,-0.00217 0.02621,-0.09608 0.02621,-0.09608z"/>
  <path class="fil4" d="M0.66357 0.62515c0.00713,0.00832 0.01849,0.03139 0.01832,0.05263 -0.00001,0.00048 -0.00037,0.00074 -0.00046,0.00029 -0.00478,-0.02342 -0.01373,-0.04421 -0.01805,-0.05281l0.00019 -0.00011z"/>
  <path class="fil4" d="M0.64335 0.63751c0.00542,0.00781 0.01606,0.03211 0.01515,0.05362 -0.00002,0.00049 -0.00041,0.00072 -0.00048,0.00027 -0.00398,-0.02467 -0.01106,-0.04495 -0.01487,-0.05379l0.0002 -0.0001z"/>
  <path class="fil4" d="M0.69086 0.6231c0.00872,0.00483 0.01377,0.01077 0.02044,0.01799 0.00329,0.00358 0.00665,0.00711 0.01033,0.0103 0.00335,0.00291 0.00826,0.00727 0.01303,0.00495 0.00266,-0.00129 0.00335,-0.00457 0.00342,-0.00725 0.00008,-0.00301 -0.0004,-0.00604 -0.00158,-0.00882l0.00025 -0.00011c0.0011,0.00249 0.00196,0.00506 0.00232,0.00777 0.00033,0.00244 0.00039,0.00522 -0.00078,0.00747 -0.00252,0.00485 -0.00874,0.00417 -0.01273,0.0018 -0.00238,-0.00142 -0.00451,-0.00333 -0.00656,-0.0052 -0.00197,-0.0018 -0.00386,-0.0037 -0.00569,-0.00564 -0.00378,-0.00399 -0.00731,-0.00819 -0.01104,-0.01222 -0.00409,-0.00443 -0.00707,-0.00681 -0.01163,-0.01076l0.00022 -0.00028z"/>
  <path class="fil4" d="M0.70309 0.66031c-0.00123,-0.00586 -0.00937,-0.03095 -0.01248,-0.03703l0.00024 -0.00014c0.00574,0.00852 0.01336,0.02946 0.01478,0.03593 0.0014,0.00641 0.00285,0.01452 0.00141,0.02098 -0.00217,0.00976 -0.00906,0.01017 -0.01156,0.01011 -0.00298,-0.00006 -0.00573,-0.0013 -0.008,-0.0032 -0.00252,-0.00212 -0.0046,-0.0058 -0.00595,-0.00876l0.00023 -0.00014c0.00253,0.0046 0.0073,0.00965 0.01276,0.01013 0.00237,0.00021 0.00493,-0.00032 0.00676,-0.00191 0.00215,-0.00188 0.00294,-0.00479 0.00331,-0.00751 0.00084,-0.00616 -0.00023,-0.01243 -0.0015,-0.01846z"/>
  <path class="fil4" d="M0.6585 0.69113c0.0011,0.00147 0.003,0.00614 0.00725,0.00799 0.00311,0.00136 0.00658,0.00181 0.00961,0 0.00296,-0.00178 0.00461,-0.00485 0.00548,-0.00809 0.0005,-0.00184 0.00081,-0.01018 0.0007,-0.01274l0.00026 -0.00004c0.00046,0.00462 0.00093,0.00964 -0.00001,0.01386 -0.00078,0.00351 -0.00273,0.00703 -0.0059,0.0089 -0.00329,0.00193 -0.00747,0.00194 -0.01069,-0.00016 -0.00159,-0.00103 -0.0063,-0.00578 -0.00712,-0.0096l0.00042 -0.00012z"/>
  <path class="fil4" d="M0.62456 0.66921c0.00133,0.00124 0.00236,0.00289 0.00336,0.00441 0.00107,0.00162 0.00209,0.00329 0.00307,0.00497 0.00196,0.00337 0.00348,0.00706 0.00469,0.01075 0.00123,0.00375 0.00223,0.00784 0.00493,0.01086 0.00265,0.00296 0.00689,0.00428 0.01062,0.00265 0.00195,-0.00086 0.00346,-0.00234 0.00444,-0.00421 0.00101,-0.00193 0.00194,-0.00434 0.00211,-0.00652l0.00026 0.00003c-0.00029,0.00209 -0.00016,0.00412 -0.00086,0.00615 -0.00062,0.00179 -0.00162,0.00347 -0.00306,0.00472 -0.00295,0.00255 -0.00726,0.003 -0.01079,0.0015 -0.00391,-0.00166 -0.00622,-0.00539 -0.0077,-0.00919 -0.00164,-0.00424 -0.00279,-0.00863 -0.00462,-0.0128 -0.00097,-0.0022 -0.00191,-0.00441 -0.00302,-0.00653 -0.00117,-0.00221 -0.0027,-0.00429 -0.00372,-0.00657l0.00029 -0.00022z"/>
  <path class="fil4" d="M0.61129 0.67499c0.00312,0.00042 0.01046,0.00081 0.01644,0.00024l0.00013 0.00054c-0.00233,0.00069 -0.00694,0.00086 -0.00831,0.00084 -0.00275,-0.00005 -0.00567,-0.00046 -0.00829,-0.00133l0.00003 -0.00029z"/>
  <path class="fil5" d="M0.55577 0.58147l0.03097 0.10036c0,0 -0.18654,0.00973 -0.1953,-0.02978 -0.00877,-0.0395 0.0932,-0.14048 0.12992,-0.16673 0.03672,-0.02624 0.04446,-0.00985 0.03057,0.01909 -0.01389,0.02894 -0.04776,0.08385 -0.04697,0.08392 0.00079,0.00008 0.05081,-0.00686 0.05081,-0.00686z"/>
  <path class="fil4" d="M0.55586 0.5813c-0.01584,0.00056 -0.03161,0.00329 -0.04708,0.00662 -0.01553,0.00335 -0.03095,0.00742 -0.04599,0.01254 -0.00864,0.00293 -0.01703,0.0063 -0.02551,0.00965 -0.0003,0.00011 -0.00008,0.00055 0.00022,0.00044 0.00762,-0.00265 0.01545,-0.00482 0.02319,-0.00711 0.00755,-0.00225 0.01517,-0.00432 0.0228,-0.00628 0.01528,-0.00393 0.03074,-0.00722 0.04627,-0.00998 0.00873,-0.00155 0.01748,-0.00298 0.02618,-0.00472 0.00062,-0.00013 0.0006,-0.00118 -0.00008,-0.00116z"/>
  <path class="fil4" d="M0.55337 0.66485c-0.00076,-0.00329 -0.0014,-0.0066 -0.00222,-0.00988 -0.00173,-0.0068 -0.00345,-0.01361 -0.00518,-0.02041 -0.00174,-0.0068 -0.00351,-0.01361 -0.00533,-0.02039 -0.00181,-0.00679 -0.00391,-0.01354 -0.00562,-0.02035 -0.00008,-0.00031 -0.00056,-0.00022 -0.00049,0.0001 0.00141,0.00687 0.00252,0.01381 0.004,0.02067 0.00151,0.00699 0.00316,0.01395 0.00493,0.02088 0.00174,0.00681 0.00358,0.01358 0.0055,0.02034 0.00097,0.00339 0.00217,0.00671 0.00323,0.01007 0.00103,0.00326 0.00197,0.00655 0.00323,0.00973l0.00037 -0.00013c-0.00062,-0.00358 -0.00161,-0.00709 -0.00242,-0.01063z"/>
  <path class="fil4" d="M0.58826 0.68343c-0.00037,-0.00158 -0.00075,-0.00315 -0.00112,-0.00473 -0.00012,-0.00052 -0.00102,-0.00052 -0.00098,0.00006 0.00007,0.0013 0.00014,0.0026 0.00021,0.0039 -0.01046,-0.00045 -0.02098,0.00014 -0.03144,0.00024 -0.01085,0.0001 -0.02169,0.00004 -0.03253,-0.00025 -0.02139,-0.00057 -0.04272,-0.00206 -0.06396,-0.00461 -0.01214,-0.00146 -0.0242,-0.00348 -0.0363,-0.00517 -0.00032,-0.00004 -0.00043,0.00047 -0.00012,0.00056 0.02084,0.00573 0.04275,0.00813 0.06425,0.00984 0.0216,0.00171 0.04328,0.00228 0.06495,0.00228 0.01207,0 0.0243,0.00027 0.03631,-0.00102 0.00049,-0.00006 0.00084,-0.00065 0.00073,-0.0011z"/>
  <path class="fil4" d="M0.53156 0.54887c-0.00195,0.00217 -0.00391,0.00436 -0.00567,0.0067 -0.00039,0.00052 -0.00076,0.00107 -0.00115,0.0016 0.00331,-0.00627 0.00644,-0.01263 0.00963,-0.01899l-0.00033 -0.00017c-0.00547,0.00891 -0.01114,0.01765 -0.01637,0.02671 -0.00255,0.00443 -0.00505,0.00888 -0.00756,0.01333 -0.00128,0.00228 -0.00261,0.00454 -0.00385,0.00685 -0.00104,0.00194 -0.00257,0.00408 -0.00283,0.00628l0.00041 0.00021c0.00184,-0.0013 0.00307,-0.00382 0.00427,-0.0057 0.0014,-0.00221 0.00273,-0.00446 0.00408,-0.00669 0.00272,-0.00448 0.00539,-0.00897 0.00799,-0.01351 0.00065,-0.00113 0.00126,-0.00227 0.00189,-0.00341 0.00161,-0.00188 0.00321,-0.00376 0.00473,-0.00572 0.00181,-0.00232 0.00341,-0.0048 0.005,-0.00728l-0.00024 -0.00021z"/>
  <path class="fil5" d="M0.57418 0.51942c0,0 -0.0244,-0.0351 -0.04398,-0.03815l-0.01931 0.0115c0,0 -0.00576,0.00074 -0.00678,-0.00301 -0.00252,-0.00928 0.00058,-0.02998 0.02079,-0.03994 0.01851,-0.00912 0.05125,-0.00028 0.07224,0.00977 0.02016,0.00965 0.02947,0.02438 0.02031,0.03698 -0.00916,0.0126 -0.04327,0.02285 -0.04327,0.02285z"/>
  <path class="fil5" d="M0.57756 0.51332c0,0 -0.01629,-0.04534 -0.04558,-0.05511l-0.00178 0.02306c0,0 0.01792,0.00347 0.04398,0.03815l0.00338 -0.0061z"/>
  <path class="fil4" d="M0.52202 0.48014c0.00563,0.00037 0.01086,0.00263 0.01572,0.00524 0.00488,0.00265 0.00931,0.00604 0.01345,0.00972 0.0042,0.00362 0.00799,0.0077 0.01168,0.01186l0.00528 0.00647 0.00498 0.00672 0.00056 0.00075 0.00083 -0.00024c0.0062,-0.00181 0.0122,-0.00404 0.01806,-0.00667 0.00293,-0.00132 0.00583,-0.0027 0.00858,-0.00437 0.00276,-0.00164 0.00546,-0.0034 0.00784,-0.00555 -0.0053,0.00359 -0.01117,0.00605 -0.01707,0.00835 -0.00295,0.00113 -0.00596,0.00214 -0.00898,0.00308 -0.00302,0.00095 -0.00607,0.0019 -0.0091,0.00268l0.00139 0.00051 -0.00496 -0.0069c-0.00174,-0.00223 -0.00354,-0.00443 -0.00534,-0.00662 -0.00194,-0.00208 -0.00382,-0.0042 -0.00583,-0.00622 -0.00208,-0.00194 -0.00409,-0.00395 -0.00635,-0.0057 -0.00434,-0.00369 -0.00918,-0.0068 -0.01432,-0.00926 -0.00127,-0.00064 -0.00261,-0.00114 -0.00393,-0.00168 -0.00135,-0.00044 -0.0027,-0.00091 -0.00408,-0.00124 -0.00274,-0.00072 -0.0056,-0.00117 -0.00841,-0.00093z"/>
  <path class="fil4" d="M0.51089 0.49277c0.00349,-0.00145 0.00678,-0.00326 0.01001,-0.00515 0.0032,-0.00194 0.00636,-0.00396 0.0093,-0.00635 -0.0035,0.00146 -0.00678,0.00327 -0.01001,0.00516 -0.0032,0.00194 -0.00635,0.00397 -0.0093,0.00634z"/>
  <path class="fil5" d="M0.56586 0.50566c0,0 -0.00571,0.01068 -0.01078,0.02705 -0.002,0.00647 -0.0062,0.03057 0.00129,0.0318 0.00749,0.00123 0.00001,-0.01724 0.00148,-0.03016 0.00148,-0.01312 0.00734,-0.02101 0.0099,-0.02826l-0.00189 -0.00043z"/>
  <path class="fil9" d="M0.55704 0.56457c-0.00021,0 -0.00043,-0.00002 -0.00067,-0.00006 -0.00323,-0.00053 -0.00428,-0.0053 -0.00428,-0.01108 0,-0.00764 0.00185,-0.01704 0.00299,-0.02072 0.00507,-0.01637 0.01078,-0.02705 0.01078,-0.02705l0.00189 0.00043c-0.0002,0.00056 -0.00042,0.00113 -0.00066,0.00171 -0.00037,0.00092 -0.00079,0.00186 -0.00124,0.00282 -0.00285,0.00614 -0.00682,0.01327 -0.008,0.02373 -0.00014,0.00121 -0.0002,0.00247 -0.0002,0.00375 0,0.00771 0.00211,0.01641 0.00211,0.02166 0,0.00295 -0.00066,0.00481 -0.00272,0.00481z"/>
  <path class="fil5" d="M0.58883 0.50997c0,0 0.00344,0.01043 0.00542,0.02584 0.00078,0.00609 0.00077,0.02827 -0.00611,0.02821 -0.00688,-0.00007 0.00268,-0.0154 0.00339,-0.02718 0.00071,-0.01195 -0.00329,-0.0199 -0.00445,-0.02679l0.00175 -0.00008z"/>
  <path class="fil9" d="M0.58817 0.56402c-0.00001,0 -0.00001,0 -0.00003,0 -0.0018,-0.00002 -0.00247,-0.00108 -0.00247,-0.00285 -0.00001,-0.005 0.00533,-0.01563 0.00586,-0.02433 0.00005,-0.00098 0.00008,-0.00193 0.00008,-0.00286 0,-0.00741 -0.00177,-0.01321 -0.00316,-0.01821 -0.00018,-0.00065 -0.00036,-0.00128 -0.00052,-0.0019 -0.00034,-0.00132 -0.00064,-0.00258 -0.00085,-0.00382l0.00175 -0.00008c0,0 0.00344,0.01043 0.00542,0.02584 0.00019,0.00153 0.00034,0.00408 0.00034,0.00704 0,0.00879 -0.00129,0.02117 -0.00642,0.02117z"/>
  <path class="fil9" d="M0.57756 0.51332l0 0c0,0 -0.0154,-0.04286 -0.04317,-0.05421 0.00028,-0.00032 0.00061,-0.0006 0.00101,-0.00086 0.00614,-0.00395 0.0124,-0.00585 0.0192,-0.00585 0.00835,0 0.01751,0.00286 0.02825,0.00833 0.01259,0.0064 0.03135,0.02018 0.02686,0.03002 -0.00449,0.00984 -0.03215,0.02257 -0.03215,0.02257z"/>
  <path class="fil9" d="M0.57756 0.51332c0,0 -0.05266,-0.04364 -0.04317,-0.05421 0.02777,0.01135 0.04317,0.05421 0.04317,0.05421l0 0z"/>
  <path class="fil8" d="M0.58241 0.51065c-0.01111,0.00063 -0.02651,-0.01889 -0.03139,-0.03336 -0.00033,-0.00099 0.00987,-0.03647 0.01116,-0.04371 0.00025,-0.00148 0.0435,0.01913 0.0435,0.01913 0,0 -0.00717,0.01438 -0.00934,0.02701 -0.00017,0.00106 -0.0032,0.03033 -0.01393,0.03093z"/>
  <path class="fil4" d="M0.6057 0.4527l-0.00004 0.00003c-0.00009,0.0002 -0.00051,0.00105 -0.00113,0.00241 -0.00106,0.00232 -0.00272,0.0061 -0.00427,0.01049 -0.00159,0.00437 -0.00311,0.00933 -0.00391,0.01408 -0.00008,0.00035 -0.0001,0.0007 -0.00015,0.00101l-0.00003 0.00016c-0.00005,0.00061 -0.00017,0.00139 -0.00031,0.00234 -0.00138,-0.00004 -0.00287,-0.00023 -0.00447,-0.00054 -0.02464,-0.00496 -0.02756,-0.03681 -0.02779,-0.04887 0.00025,0.00007 0.00049,0.00017 0.00076,0.00027 0.00117,0.0004 0.00269,0.00102 0.00451,0.00177 0.00045,0.0002 0.00091,0.0004 0.0014,0.0006 0.00291,0.00124 0.00635,0.00278 0.00995,0.00439 0.00118,0.00053 0.00236,0.00106 0.00356,0.00162 0.00256,0.00119 0.00516,0.00238 0.00758,0.00349 0.00102,0.0005 0.00204,0.00098 0.00301,0.00141 0.00106,0.00049 0.00211,0.001 0.00308,0.00143 0.00048,0.00023 0.00096,0.00047 0.00141,0.00066l0.00066 0.00033c0.00142,0.00066 0.00263,0.00123 0.00359,0.00169 0.00073,0.00034 0.0013,0.00062 0.00172,0.00081 0.00036,0.00018 0.0006,0.00028 0.00072,0.00036l0.00012 0.00005 0.00003 0.00001z"/>
  <path class="fil8" d="M0.56825 0.37884c-0.00881,0.01466 -0.01185,0.06258 -0.0031,0.07562 0.01269,0.01889 0.03916,0.027 0.05667,0.01047 0.01698,-0.01602 0.01983,-0.07855 0.00953,-0.09098 -0.01519,-0.01831 -0.05009,-0.01677 -0.0631,0.00489z"/>
  <path class="fil4" d="M0.60767 0.41681l-0.00026 0.00028c-0.00002,0.00326 -0.00059,0.00699 -0.00357,0.00796l0.00001 0.00018c0.00362,-0.00037 0.00433,-0.00533 0.00382,-0.00842z"/>
  <path class="fil4" d="M0.6049 0.4133c-0.00523,-0.00059 -0.00604,0.00989 -0.0012,0.01044 0.00476,0.00055 0.00557,-0.00994 0.0012,-0.01044z"/>
  <path class="fil4" d="M0.62556 0.41843l0.00022 0.00031c-0.00035,0.00324 -0.00021,0.00701 0.00264,0.00831l-0.00003 0.00019c-0.00355,-0.00079 -0.00369,-0.00579 -0.00283,-0.00881z"/>
  <path class="fil4" d="M0.62872 0.41526c0.00525,0.00001 0.00485,0.01052 -0.00002,0.01052 -0.00479,-0.00001 -0.00439,-0.01052 0.00002,-0.01052z"/>
  <path class="fil4" d="M0.60113 0.40819c0.00145,-0.00025 0.00275,-0.00073 0.00417,-0.00112 0.00159,-0.00045 0.00291,-0.00064 0.00404,-0.00195 0.0006,-0.00071 0.00047,-0.00207 -0.00016,-0.00271 -0.00146,-0.00152 -0.00355,-0.00146 -0.00549,-0.001 -0.00211,0.0005 -0.00361,0.00142 -0.00493,0.00314 -0.00128,0.00166 0.00045,0.00396 0.00237,0.00364z"/>
  <path class="fil4" d="M0.63349 0.40681c-0.00144,-0.00035 -0.00271,-0.00091 -0.00409,-0.0014 -0.00156,-0.00056 -0.00286,-0.00084 -0.00389,-0.00223 -0.00056,-0.00074 -0.00034,-0.00208 0.00033,-0.00269 0.00157,-0.00141 0.00365,-0.0012 0.00556,-0.00061 0.00207,0.00064 0.0035,0.00166 0.00469,0.00346 0.00117,0.00175 -0.00071,0.00393 -0.0026,0.00347z"/>
  <path class="fil4" d="M0.60104 0.44674c0.00072,0.00082 0.00141,0.00193 0.00259,0.00212 0.00112,0.00018 0.00248,-0.00023 0.00355,-0.00055l0.00013 0.00018c-0.00094,0.00118 -0.00277,0.00182 -0.00426,0.00144 -0.00145,-0.00036 -0.00208,-0.00169 -0.00233,-0.00307l0.00032 -0.00012z"/>
  <path class="fil4" d="M0.6052 0.43728c0.00161,0.00296 0.00416,0.00471 0.00701,0.00549 0.00127,0.00036 0.00262,0.00051 0.00396,0.00049 0.00026,0.00001 0.00053,0 0.00077,-0.00003 0.00024,-0.00001 0.00046,-0.00002 0.00072,-0.00006 0.00039,-0.00002 0.00062,-0.00032 0.00071,-0.00067l0 -0.00003 0 -0.00033 0 -0.00003 0.00001 -0.00028c0.00026,-0.0025 0.00031,-0.00632 0.00031,-0.00632 0.00088,0.00053 0.00538,0.00298 0.00541,0.00167 0.00018,-0.01087 0.00039,-0.02295 -0.00172,-0.03381 -0.00005,-0.00036 -0.0006,-0.00032 -0.00059,0.00004 -0.0006,0.01044 0.00065,0.02091 0.00022,0.0314 -0.00145,-0.00068 -0.00379,-0.00191 -0.0051,-0.00198 -0.00036,0.00007 0.00003,0.00739 -0.00017,0.0085l-0.00003 0.00012c-0.00425,0.00021 -0.00732,-0.0013 -0.01118,-0.00444 -0.00023,-0.0002 -0.0005,-0.00001 -0.00033,0.00027z"/>
  <path class="fil4" d="M0.61479 0.44188c0,0 -0.00244,0.00282 -0.00556,0.00366 -0.00115,0.00032 -0.00237,0.00038 -0.00361,-0.00005 -0.00254,-0.00088 -0.00242,-0.00327 -0.00178,-0.00527 0.00051,-0.00164 0.00139,-0.00302 0.00139,-0.00302 0,0 0.00352,0.00383 0.00956,0.00468z"/>
  <path class="fil16" d="M0.60923 0.44554c-0.00115,0.00032 -0.00237,0.00038 -0.00361,-0.00005 -0.00254,-0.00088 -0.00242,-0.00327 -0.00178,-0.00527 0.00275,0.0005 0.00536,0.0026 0.00539,0.00532z"/>
  <path class="fil4" d="M0.55983 0.4218c-0.00075,-0.00443 -0.00703,-0.05198 -0.00527,-0.05691 0.00159,-0.00449 0.00643,-0.00208 0.00653,-0.00234 0.00012,-0.00028 0.0007,-0.00443 0.00346,-0.00573 0.00244,-0.00115 0.00562,0.00069 0.00562,0.00069 0,0 0.00125,-0.00435 0.00416,-0.00526 0.00292,-0.0009 0.00532,0.00175 0.00532,0.00175 0,0 0.00137,-0.00417 0.005,-0.00482 0.00362,-0.00065 0.00516,0.00261 0.00516,0.00261 0,0 0.00162,-0.0041 0.00461,-0.00461 0.00299,-0.00052 0.00517,0.00286 0.00517,0.00286 0,0 0.002,-0.00367 0.00552,-0.00335 0.00361,0.00032 0.0045,0.00431 0.0045,0.00431 0,0 0.00248,-0.0035 0.0058,-0.00325 0.00332,0.00025 0.00404,0.0045 0.00404,0.0045 0,0 0.00174,-0.00354 0.00483,-0.00298 0.00309,0.00057 0.00337,0.00501 0.00337,0.00501 0,0 0.00105,-0.0042 0.00459,-0.00263 0.00544,0.00241 0.00446,0.02972 0.00453,0.04154 0,0 -0.00099,-0.00575 -0.00336,-0.00621 -0.00237,-0.00046 -0.00455,0.00316 -0.00911,0.00368 -0.00649,0.00074 -0.01627,-0.0078 -0.02522,-0.00685 -0.00868,0.00093 -0.01592,0.00921 -0.02037,0.02224 -0.00503,0.01469 -0.01708,0.02627 -0.01888,0.01575z"/>
  <path class="fil8" d="M0.57174 0.4187c0,0 -0.00704,-0.01727 -0.01465,-0.0151 -0.00762,0.00217 -0.0047,0.02555 0.00257,0.03032 0.00727,0.00476 0.01182,-0.00187 0.01182,-0.00187l0.00026 -0.01335z"/>
  <path class="fil4" d="M0.55809 0.41029l-0.00009 0.0002c0.00506,0.00352 0.00681,0.00935 0.00765,0.01516 -0.00119,-0.00243 -0.00319,-0.00407 -0.0064,-0.00273l0.00009 0.00033c0.00239,0.00003 0.00395,0.0008 0.00507,0.00298 0.0008,0.00154 0.00117,0.00334 0.00161,0.00501 0.00015,0.00056 0.00111,0.0005 0.00105,-0.00012l-0.00002 -0.00014c0.00176,-0.00706 -0.00149,-0.01824 -0.00896,-0.02069z"/>
  <path class="fil3" d="M0.79765 0.32701c0,0.03663 -0.02971,0.06634 -0.06634,0.06634 -0.01481,0 -0.02848,-0.00485 -0.03953,-0.01308l-0.0325 0.0083 0.01353 -0.03027c-0.00502,-0.00933 -0.00785,-0.02 -0.00785,-0.03129 0,-0.03664 0.02971,-0.06635 0.06635,-0.06635 0.03663,0 0.06634,0.02971 0.06634,0.06635z"/>
  <path class="fil4" d="M0.79765 0.32701c-0.00007,-0.0201 -0.0097,-0.03996 -0.0257,-0.0521 -0.00795,-0.00607 -0.01725,-0.01033 -0.02702,-0.01234 -0.00977,-0.00197 -0.01997,-0.00161 -0.02956,0.00088 -0.00959,0.00252 -0.01864,0.00713 -0.02611,0.01362 -0.00745,0.00649 -0.01346,0.01459 -0.01748,0.02359 -0.00411,0.00898 -0.00568,0.01895 -0.00545,0.02877 0.00041,0.00984 0.00304,0.01956 0.00765,0.02825l0.00031 0.00058 -0.00027 0.00059 -0.01364 0.03021 -0.0014 -0.00167 0.03256 -0.00807 0.00046 -0.00012 0.00037 0.00028c0.00958,0.00729 0.02123,0.01185 0.03328,0.01297 0.00301,0.00029 0.00604,0.00035 0.00906,0.00016 0.00304,0 0.00603,-0.00053 0.00903,-0.00095 0.00591,-0.00125 0.01182,-0.00288 0.01721,-0.00572 0.00543,-0.00271 0.0106,-0.00605 0.01502,-0.01024 0.00235,-0.00195 0.00427,-0.00433 0.00636,-0.00655 0.00179,-0.00246 0.00381,-0.00476 0.00529,-0.00744 0.00658,-0.0103 0.00983,-0.02251 0.01003,-0.0347zm0 0c-0.00012,0.01219 -0.00328,0.02445 -0.00981,0.03484 -0.00147,0.00269 -0.00348,0.00502 -0.00526,0.00751 -0.00209,0.00224 -0.004,0.00465 -0.00635,0.00662 -0.00444,0.00423 -0.00955,0.00771 -0.01499,0.01053 -0.00539,0.00297 -0.01134,0.00474 -0.01732,0.0061 -0.00304,0.00049 -0.00606,0.00109 -0.00915,0.00114 -0.00307,0.00025 -0.00616,0.00024 -0.00923,0 -0.01231,-0.00092 -0.02434,-0.00537 -0.03435,-0.01269l0.00083 0.00016 -0.03244 0.00852 -0.00242 0.00064 0.00102 -0.00231 0.01342 -0.03031 0.00004 0.00117c-0.00997,-0.018 -0.01051,-0.04063 -0.00208,-0.05926 0.00419,-0.00933 0.01054,-0.01765 0.01837,-0.02417 0.00783,-0.00655 0.01722,-0.01112 0.02707,-0.01351 0.00986,-0.00237 0.02025,-0.00254 0.03013,-0.00036 0.00987,0.00222 0.01918,0.0067 0.02708,0.01295 0.01602,0.01233 0.02551,0.03234 0.02544,0.05243z"/>
  <path class="fil4" d="M0.75715 0.32977c0,0.00322 0.00261,0.00583 0.00583,0.00583 0.00322,0 0.00582,-0.00261 0.00582,-0.00583 0,-0.00322 -0.0026,-0.00583 -0.00582,-0.00583 -0.00322,0 -0.00583,0.00261 -0.00583,0.00583z"/>
  <path class="fil4" d="M0.72651 0.32977c0,0.00322 0.00261,0.00583 0.00583,0.00583 0.00322,0 0.00583,-0.00261 0.00583,-0.00583 0,-0.00322 -0.00261,-0.00583 -0.00583,-0.00583 -0.00322,0 -0.00583,0.00261 -0.00583,0.00583z"/>
  <path class="fil4" d="M0.69587 0.32977c0,0.00322 0.00261,0.00583 0.00583,0.00583 0.00322,0 0.00583,-0.00261 0.00583,-0.00583 0,-0.00322 -0.00261,-0.00583 -0.00583,-0.00583 -0.00322,0 -0.00583,0.00261 -0.00583,0.00583z"/>
  <polygon class="fil6" points="0.22488,0.74602 1.15297,0.74602 1.15297,0.71211 0.22488,0.71211 "/>
  <polygon class="fil17" points="0.2581,0.77992 1.11975,0.77992 1.11975,0.74603 0.2581,0.74603 "/>
  <polygon class="fil17" points="1.11968,1.25566 1.13302,1.25566 1.09419,0.77992 1.06014,0.77992 "/>
  <polygon class="fil4" points="1.06015,0.77993 1.06414,0.81176 1.09678,0.81176 1.09419,0.77993 "/>
  <polygon class="fil17" points="0.25817,1.25566 0.24483,1.25566 0.28366,0.77992 0.3177,0.77992 "/>
  <polygon class="fil4" points="0.3177,0.77993 0.31371,0.81176 0.28107,0.81176 0.28366,0.77993 "/>
  <polygon class="fil17" points="1.06035,0.58504 1.18493,0.58504 1.18493,0.48973 1.06035,0.48973 "/>
  <polygon class="fil6" points="1.03711,0.58504 1.06066,0.58504 1.06066,0.48973 1.03711,0.48973 "/>
  <polygon class="fil17" points="1.02533,0.56486 1.03711,0.56211 1.03711,0.51626 1.02533,0.5135 "/>
  <polygon class="fil18" points="1.06631,0.57461 1.15658,0.57461 1.15658,0.50376 1.06631,0.50376 "/>
  <polygon class="fil3" points="1.06894,0.57119 1.15395,0.57119 1.15395,0.50717 1.06894,0.50717 "/>
  <polygon class="fil19" points="1.13798,0.51523 1.14736,0.51523 1.14736,0.52643 1.14874,0.52643 1.14874,0.51385 1.13798,0.51385 "/>
  <polygon class="fil19" points="1.07415,0.55175 1.07415,0.56452 1.08483,0.56452 1.08483,0.56314 1.07553,0.56314 1.07553,0.55175 "/>
  <polygon class="fil19" points="1.14736,0.55175 1.14736,0.56314 1.13798,0.56314 1.13798,0.56452 1.14874,0.56452 1.14874,0.55175 "/>
  <polygon class="fil19" points="1.07553,0.52643 1.07553,0.51523 1.08483,0.51523 1.08483,0.51385 1.07415,0.51385 1.07415,0.52643 "/>
  <polygon class="fil19" points="1.12083,0.53116 1.1237,0.53116 1.1237,0.53468 1.12508,0.53468 1.12508,0.52978 1.12083,0.52978 "/>
  <polygon class="fil19" points="1.09781,0.54363 1.09781,0.54859 1.10203,0.54859 1.10203,0.54721 1.09919,0.54721 1.09919,0.54363 "/>
  <polygon class="fil19" points="1.1237,0.54363 1.1237,0.54721 1.12083,0.54721 1.12083,0.54859 1.12439,0.54859 1.12508,0.54859 1.12508,0.54363 "/>
  <polygon class="fil19" points="1.09919,0.53468 1.09919,0.53116 1.10203,0.53116 1.10203,0.52978 1.0985,0.52978 1.09781,0.52978 1.09781,0.53468 "/>
  <path class="fil5" d="M1.14544 0.52044c0,0.00127 -0.00086,0.0023 -0.00192,0.0023 -0.00107,0 -0.00193,-0.00103 -0.00193,-0.0023 0,-0.00127 0.00086,-0.00229 0.00193,-0.00229 0.00106,0 0.00192,0.00102 0.00192,0.00229z"/>
  <polygon class="fil6" points="1.08317,0.59491 1.13903,0.59491 1.1418,0.58504 1.0804,0.58504 "/>
  <polygon class="fil4" points="1.08163,0.58943 1.141,0.58789 1.1418,0.58504 1.0804,0.58504 "/>
  <polygon class="fil6" points="1.10112,0.60442 1.12108,0.60442 1.12108,0.59491 1.10112,0.59491 "/>
  <polygon class="fil4" points="1.10112,0.59729 1.12108,0.59851 1.12108,0.59491 1.10112,0.59491 "/>
  <path class="fil20" d="M1.16943 0.53522c-0.00407,0 -0.00737,-0.00393 -0.00737,-0.00878 0,-0.00485 0.0033,-0.00878 0.00737,-0.00878 0.00407,0 0.00737,0.00393 0.00737,0.00878 0,0.00485 -0.0033,0.00878 -0.00737,0.00878zm0 -0.01585c-0.00328,0 -0.00594,0.00316 -0.00594,0.00707 0,0.0039 0.00266,0.00707 0.00594,0.00707 0.00328,0 0.00593,-0.00317 0.00593,-0.00707 0,-0.00391 -0.00265,-0.00707 -0.00593,-0.00707z"/>
  <path class="fil17" d="M1.16349 0.52644c0,0.0039 0.00266,0.00707 0.00594,0.00707 0.00328,0 0.00593,-0.00317 0.00593,-0.00707 0,-0.00391 -0.00265,-0.00707 -0.00593,-0.00707 -0.00328,0 -0.00594,0.00316 -0.00594,0.00707z"/>
  <path class="fil21" d="M1.16943 0.53213c-0.00264,0 -0.00478,-0.00255 -0.00478,-0.00569 0,-0.00314 0.00214,-0.00569 0.00478,-0.00569 0.00264,0 0.00478,0.00255 0.00478,0.00569 0,0.00314 -0.00214,0.00569 -0.00478,0.00569z"/>
  <path class="fil6" d="M1.16616 0.544c0,0.00215 0.00146,0.0039 0.00327,0.0039 0.00181,0 0.00327,-0.00175 0.00327,-0.0039 0,-0.00215 -0.00146,-0.0039 -0.00327,-0.0039 -0.00181,0 -0.00327,0.00175 -0.00327,0.0039z"/>
  <path class="fil17" d="M1.16679 0.544c0,0.00173 0.00118,0.00314 0.00264,0.00314 0.00145,0 0.00264,-0.00141 0.00264,-0.00314 0,-0.00174 -0.00119,-0.00314 -0.00264,-0.00314 -0.00146,0 -0.00264,0.0014 -0.00264,0.00314z"/>
  <path class="fil6" d="M1.16616 0.55668c0,0.00215 0.00146,0.0039 0.00327,0.0039 0.00181,0 0.00327,-0.00175 0.00327,-0.0039 0,-0.00216 -0.00146,-0.0039 -0.00327,-0.0039 -0.00181,0 -0.00327,0.00174 -0.00327,0.0039z"/>
  <path class="fil17" d="M1.16679 0.55668c0,0.00173 0.00118,0.00314 0.00264,0.00314 0.00145,0 0.00264,-0.00141 0.00264,-0.00314 0,-0.00174 -0.00119,-0.00314 -0.00264,-0.00314 -0.00146,0 -0.00264,0.0014 -0.00264,0.00314z"/>
  <path class="fil6" d="M1.16616 0.56936c0,0.00215 0.00146,0.00389 0.00327,0.00389 0.00181,0 0.00327,-0.00174 0.00327,-0.00389 0,-0.00216 -0.00146,-0.0039 -0.00327,-0.0039 -0.00181,0 -0.00327,0.00174 -0.00327,0.0039z"/>
  <path class="fil17" d="M1.16679 0.56936c0,0.00173 0.00118,0.00313 0.00264,0.00313 0.00145,0 0.00264,-0.0014 0.00264,-0.00313 0,-0.00174 -0.00119,-0.00315 -0.00264,-0.00315 -0.00146,0 -0.00264,0.00141 -0.00264,0.00315z"/>
  <polygon class="fil4" points="1.18156,0.5756 1.18234,0.5756 1.18234,0.57467 1.18156,0.57467 "/>
  <polygon class="fil4" points="1.18032,0.5756 1.1811,0.5756 1.1811,0.57467 1.18032,0.57467 "/>
  <polygon class="fil4" points="1.17909,0.5756 1.17987,0.5756 1.17987,0.57467 1.17909,0.57467 "/>
  <polygon class="fil4" points="1.17786,0.5756 1.17864,0.5756 1.17864,0.57467 1.17786,0.57467 "/>
  <polygon class="fil4" points="1.17662,0.5756 1.1774,0.5756 1.1774,0.57467 1.17662,0.57467 "/>
  <polygon class="fil4" points="1.18234,0.57707 1.18234,0.57614 1.18156,0.57614 1.18156,0.57707 "/>
  <polygon class="fil4" points="1.18234,0.57854 1.18234,0.57762 1.18156,0.57762 1.18156,0.57854 "/>
  <polygon class="fil4" points="1.18234,0.58001 1.18234,0.57908 1.18156,0.57908 1.18156,0.58001 "/>
  <polygon class="fil4" points="1.18234,0.58148 1.18234,0.58055 1.18156,0.58055 1.18156,0.58148 "/>
  <polygon class="fil4" points="1.1811,0.57707 1.1811,0.57614 1.18032,0.57614 1.18032,0.57707 "/>
  <polygon class="fil4" points="1.1811,0.57854 1.1811,0.57762 1.18032,0.57762 1.18032,0.57854 "/>
  <polygon class="fil4" points="1.1811,0.58001 1.1811,0.57908 1.18032,0.57908 1.18032,0.58001 "/>
  <polygon class="fil4" points="1.1811,0.58148 1.1811,0.58055 1.18032,0.58055 1.18032,0.58148 "/>
  <polygon class="fil4" points="1.17987,0.57707 1.17987,0.57614 1.17909,0.57614 1.17909,0.57707 "/>
  <polygon class="fil4" points="1.17987,0.57854 1.17987,0.57762 1.17909,0.57762 1.17909,0.57854 "/>
  <polygon class="fil4" points="1.17987,0.58001 1.17987,0.57908 1.17909,0.57908 1.17909,0.58001 "/>
  <polygon class="fil4" points="1.17987,0.58148 1.17987,0.58055 1.17909,0.58055 1.17909,0.58148 "/>
  <polygon class="fil4" points="1.17864,0.57707 1.17864,0.57614 1.17786,0.57614 1.17786,0.57707 "/>
  <polygon class="fil4" points="1.17864,0.57854 1.17864,0.57762 1.17786,0.57762 1.17786,0.57854 "/>
  <polygon class="fil4" points="1.17864,0.58001 1.17864,0.57908 1.17786,0.57908 1.17786,0.58001 "/>
  <polygon class="fil4" points="1.17864,0.58148 1.17864,0.58055 1.17786,0.58055 1.17786,0.58148 "/>
  <polygon class="fil4" points="1.1774,0.57707 1.1774,0.57614 1.17662,0.57614 1.17662,0.57707 "/>
  <polygon class="fil4" points="1.1774,0.57854 1.1774,0.57762 1.17662,0.57762 1.17662,0.57854 "/>
  <polygon class="fil4" points="1.1774,0.58001 1.1774,0.57908 1.17662,0.57908 1.17662,0.58001 "/>
  <polygon class="fil4" points="1.1774,0.58148 1.1774,0.58055 1.17662,0.58055 1.17662,0.58148 "/>
  <polygon class="fil4" points="1.16371,0.50659 1.1768,0.50659 1.1768,0.50376 1.16371,0.50376 "/>
  <polygon class="fil17" points="1.17498,0.50601 1.17623,0.50601 1.17623,0.50434 1.17498,0.50434 "/>
  <polygon class="fil17" points="1.1732,0.50601 1.17445,0.50601 1.17445,0.50434 1.1732,0.50434 "/>
  <polygon class="fil17" points="1.17142,0.50601 1.17266,0.50601 1.17266,0.50434 1.17142,0.50434 "/>
  <polygon class="fil17" points="1.16963,0.50601 1.17088,0.50601 1.17088,0.50434 1.16963,0.50434 "/>
  <polygon class="fil17" points="1.16785,0.50601 1.16909,0.50601 1.16909,0.50434 1.16785,0.50434 "/>
  <polygon class="fil17" points="1.16606,0.50601 1.16731,0.50601 1.16731,0.50434 1.16606,0.50434 "/>
  <polygon class="fil17" points="1.16428,0.50601 1.16552,0.50601 1.16552,0.50434 1.16428,0.50434 "/>
  <polygon class="fil6" points="1.16948,0.48534 1.15751,0.48534 1.15751,0.48973 1.16948,0.48973 "/>
  <polygon class="fil17" points="1.17058,0.48801 1.15641,0.48801 1.15641,0.48973 1.17058,0.48973 "/>
  <polygon class="fil6" points="1.08452,0.49729 1.11773,0.49729 1.11579,0.47607 1.08645,0.47607 "/>
  <polygon class="fil4" points="1.11146,0.49542 1.09078,0.49542 1.09078,0.47949 1.11146,0.47949 "/>
  <polygon class="fil6" points="1.10981,0.49348 1.09243,0.49348 1.09243,0.48142 1.10981,0.48142 "/>
  <path class="fil17" d="M1.10618 0.48745c0,0.00333 -0.00227,0.00603 -0.00506,0.00603 -0.0028,0 -0.00506,-0.0027 -0.00506,-0.00603 0,-0.00333 0.00226,-0.00603 0.00506,-0.00603 0.00279,0 0.00506,0.0027 0.00506,0.00603z"/>
  <polygon class="fil17" points="1.04867,0.58101 1.04867,0.56937 1.04597,0.57005 1.04597,0.58033 "/>
  <polygon class="fil6" points="1.18234,0.65289 1.13059,0.65289 1.13059,0.64433 1.18234,0.64433 "/>
  <polygon class="fil17" points="1.11749,0.87112 1.10513,0.87112 1.10513,0.60438 1.11749,0.60438 "/>
  <polygon class="fil17" points="1.10659,0.88891 1.10659,1.25503 1.1131,1.25505 1.11603,0.88891 "/>
  <polygon class="fil17" points="1.09719,0.88891 0.97237,1.25341 0.97884,1.25566 1.10659,0.89213 "/>
  <polygon class="fil17" points="1.12543,0.88891 1.25082,1.25507 1.24379,1.25566 1.11603,0.89213 "/>
  <path class="fil4" d="M1.096 0.87471l0 0.00977c0,0.00846 0.00685,0.01532 0.01531,0.01532 0.00846,0 0.01532,-0.00686 0.01532,-0.01532l0 -0.00977 -0.03063 0z"/>
  <polygon class="fil6" points="1.14968,0.88416 1.07434,0.88416 1.07434,0.86787 1.14968,0.86787 "/>
  <polygon class="fil17" points="1.13369,0.84452 1.08893,0.84452 1.08893,0.82823 1.13369,0.82823 "/>
  <polygon class="fil17" points="1.13369,0.65675 1.08893,0.65675 1.08893,0.64046 1.13369,0.64046 "/>
  <polygon class="fil17" points="1.21098,0.65675 1.1774,0.65675 1.1774,0.64046 1.21098,0.64046 "/>
  <polygon class="fil17" points="1.19608,1.11398 1.02655,1.11398 1.02655,1.10848 1.19608,1.10848 "/>
 </g>
</svg>
